<?xml version="1.0" encoding="UTF-8" standalone="no"?>
<!-- Created with Inkscape (http://www.inkscape.org/) -->

<svg
   version="1.1"
   id="svg2"
   width="666.66669"
   height="666.66669"
   viewBox="0 0 666.66669 666.66669"
   sodipodi:docname="5016023.ai"
   xmlns:inkscape="http://www.inkscape.org/namespaces/inkscape"
   xmlns:sodipodi="http://sodipodi.sourceforge.net/DTD/sodipodi-0.dtd"
   xmlns="http://www.w3.org/2000/svg"
   xmlns:svg="http://www.w3.org/2000/svg">
  <defs
     id="defs6">
    <clipPath
       clipPathUnits="userSpaceOnUse"
       id="clipPath66">
      <path
         d="m 0.001,0 h 500 v 500 h -500 z"
         id="path64" />
    </clipPath>
    <clipPath
       clipPathUnits="userSpaceOnUse"
       id="clipPath158">
      <path
         d="M 37.4575,475.231 H 158.579 V 393.279 H 37.4575 Z"
         id="path156" />
    </clipPath>
    <clipPath
       clipPathUnits="userSpaceOnUse"
       id="clipPath176">
      <path
         d="M 37.4575,284.77 H 109.149 V -4.45508 H 37.4575 Z"
         id="path174" />
    </clipPath>
    <clipPath
       clipPathUnits="userSpaceOnUse"
       id="clipPath330">
      <path
         d="M 337.804,331.725 H 349.57 V 312.296 H 337.804 Z"
         id="path328" />
    </clipPath>
  </defs>
  <sodipodi:namedview
     id="namedview4"
     pagecolor="#ffffff"
     bordercolor="#000000"
     borderopacity="0.25"
     inkscape:showpageshadow="2"
     inkscape:pageopacity="0.0"
     inkscape:pagecheckerboard="0"
     inkscape:deskcolor="#d1d1d1" />
  <g
     id="g8"
     inkscape:groupmode="layer"
     inkscape:label="5016023"
     transform="matrix(1.3333333,0,0,-1.3333333,0,666.66667)">
    <path
       d="M 0,0 H 500 V 500 H 0 Z"
       style="fill:#ebf9ff;fill-opacity:1;fill-rule:nonzero;stroke:none"
       id="path10" />
    <path
       d="M 473.656,318.462 H 298.981 v 156.769 h 174.675 z"
       style="fill:#ffffff;fill-opacity:1;fill-rule:nonzero;stroke:none"
       id="path12" />
    <g
       id="g14"
       transform="translate(374.1855,458.1426)">
      <path
         d="M 0,0 H 48.502"
         style="fill:none;stroke:#041519;stroke-width:1;stroke-linecap:butt;stroke-linejoin:miter;stroke-miterlimit:10;stroke-dasharray:none;stroke-opacity:1"
         id="path16" />
    </g>
    <g
       id="g18"
       transform="translate(374.1855,448.6016)">
      <path
         d="M 0,0 H 48.502"
         style="fill:none;stroke:#041519;stroke-width:1;stroke-linecap:butt;stroke-linejoin:miter;stroke-miterlimit:10;stroke-dasharray:none;stroke-opacity:1"
         id="path20" />
    </g>
    <g
       id="g22"
       transform="translate(374.1855,439.0596)">
      <path
         d="M 0,0 H 48.502"
         style="fill:none;stroke:#041519;stroke-width:1;stroke-linecap:butt;stroke-linejoin:miter;stroke-miterlimit:10;stroke-dasharray:none;stroke-opacity:1"
         id="path24" />
    </g>
    <g
       id="g26"
       transform="translate(374.1855,405.6235)">
      <path
         d="M 0,0 H 48.502"
         style="fill:none;stroke:#041519;stroke-width:1;stroke-linecap:butt;stroke-linejoin:miter;stroke-miterlimit:10;stroke-dasharray:none;stroke-opacity:1"
         id="path28" />
    </g>
    <g
       id="g30"
       transform="translate(374.1855,398.7798)">
      <path
         d="M 0,0 H 48.502"
         style="fill:none;stroke:#041519;stroke-width:1;stroke-linecap:butt;stroke-linejoin:miter;stroke-miterlimit:10;stroke-dasharray:none;stroke-opacity:1"
         id="path32" />
    </g>
    <g
       id="g34"
       transform="translate(374.1855,391.9375)">
      <path
         d="M 0,0 H 48.502"
         style="fill:none;stroke:#041519;stroke-width:1;stroke-linecap:butt;stroke-linejoin:miter;stroke-miterlimit:10;stroke-dasharray:none;stroke-opacity:1"
         id="path36" />
    </g>
    <g
       id="g38"
       transform="translate(374.1855,358.2393)">
      <path
         d="M 0,0 H 81.283"
         style="fill:none;stroke:#041519;stroke-width:1;stroke-linecap:butt;stroke-linejoin:miter;stroke-miterlimit:10;stroke-dasharray:none;stroke-opacity:1"
         id="path40" />
    </g>
    <g
       id="g42"
       transform="translate(374.1855,351.4736)">
      <path
         d="M 0,0 H 81.283"
         style="fill:none;stroke:#041519;stroke-width:1;stroke-linecap:butt;stroke-linejoin:miter;stroke-miterlimit:10;stroke-dasharray:none;stroke-opacity:1"
         id="path44" />
    </g>
    <g
       id="g46"
       transform="translate(374.1855,344.708)">
      <path
         d="M 0,0 H 81.283"
         style="fill:none;stroke:#041519;stroke-width:1;stroke-linecap:butt;stroke-linejoin:miter;stroke-miterlimit:10;stroke-dasharray:none;stroke-opacity:1"
         id="path48" />
    </g>
    <g
       id="g50"
       transform="translate(427.3877,457.9946)">
      <path
         d="M 0,0 10.802,-25.146 H 21.604 L 33.846,8.6 H 25.714 L 16.92,-18.483 7.919,0.463 Z"
         style="fill:#0886a8;fill-opacity:1;fill-rule:nonzero;stroke:none"
         id="path52" />
    </g>
    <g
       id="g54"
       transform="translate(427.3877,407.0537)">
      <path
         d="M 0,0 10.802,-25.146 H 21.604 L 33.846,8.601 H 25.714 L 16.92,-18.482 7.919,0.465 Z"
         style="fill:#0886a8;fill-opacity:1;fill-rule:nonzero;stroke:none"
         id="path56" />
    </g>
    <path
       d="M 361.613,430.943 H 308.48 v 36.009 h 53.133 z"
       style="fill:#c7f1ff;fill-opacity:1;fill-rule:nonzero;stroke:none"
       id="path58" />
    <g
       id="g60">
      <g
         id="g62"
         clip-path="url(#clipPath66)">
        <g
           id="g68"
           transform="translate(317.666,449.2695)">
          <path
             d="m 0,0 c 0,0 6.913,9.018 18.388,8.597 11.475,-0.422 16.374,-9.875 16.374,-9.875 0,0 -7.391,-8.928 -17.723,-8.649 C 4.893,-9.6 0,0 0,0"
             style="fill:#ffffff;fill-opacity:1;fill-rule:nonzero;stroke:none"
             id="path70" />
        </g>
        <g
           id="g72"
           transform="translate(340.9971,448.397)">
          <path
             d="m 0,0 c -0.119,-3.288 -2.883,-5.854 -6.169,-5.734 -3.288,0.121 -5.854,2.884 -5.733,6.172 0.119,3.287 2.882,5.854 6.17,5.733 C -2.446,6.05 0.121,3.288 0,0"
             style="fill:#c7f1ff;fill-opacity:1;fill-rule:nonzero;stroke:none"
             id="path74" />
        </g>
        <path
           d="M 361.613,379.566 H 308.48 v 36.008 h 53.133 z"
           style="fill:#c7f1ff;fill-opacity:1;fill-rule:nonzero;stroke:none"
           id="path76" />
        <g
           id="g78"
           transform="translate(328.1621,405.2388)">
          <path
             d="m 0,0 c -2.347,-0.001 -6.45,-2.563 -8.362,-9.407 -1.911,-6.843 -2.626,-11.759 -0.715,-11.796 1.91,-0.037 7.644,1.332 10.988,1.327 3.345,-0.005 3.345,-0.398 3.345,5.293 0,5.69 0,14.584 -5.256,14.583"
             style="fill:#ffffff;fill-opacity:1;fill-rule:nonzero;stroke:none"
             id="path80" />
        </g>
        <g
           id="g82"
           transform="translate(341.9336,405.2388)">
          <path
             d="m 0,0 c 2.348,-0.001 6.449,-2.563 8.361,-9.407 1.911,-6.843 2.627,-11.759 0.716,-11.796 -1.912,-0.037 -7.644,1.332 -10.989,1.327 -3.344,-0.005 -3.344,-0.398 -3.344,5.293 0,5.69 0,14.584 5.256,14.583"
             style="fill:#ffffff;fill-opacity:1;fill-rule:nonzero;stroke:none"
             id="path84" />
        </g>
        <g
           id="g86"
           transform="translate(325.6885,397.3784)">
          <path
             d="m 0,0 c 0,0 6.212,4.002 6.927,5.823 0.719,1.822 0,8.032 0,8.032 h 4.301 V 5.823 l 5.254,-4.867 -1.91,-2.05 -5.015,3.483 -7.408,-5.016 z"
             style="fill:#ffffff;fill-opacity:1;fill-rule:nonzero;stroke:none"
             id="path88" />
        </g>
        <path
           d="M 361.613,328.187 H 308.48 v 36.009 h 53.133 z"
           style="fill:#c7f1ff;fill-opacity:1;fill-rule:nonzero;stroke:none"
           id="path90" />
        <g
           id="g92"
           transform="translate(344.3506,352.8672)">
          <path
             d="m 0,0 c 0,-0.77 -0.961,-1.394 -2.146,-1.394 h -9.356 c -1.186,0 -2.145,0.624 -2.145,1.394 v 6.491 c 0,0.769 0.959,1.394 2.145,1.394 h 9.356 C -0.961,7.885 0,7.26 0,6.491 Z"
             style="fill:#ffffff;fill-opacity:1;fill-rule:nonzero;stroke:none"
             id="path94" />
        </g>
        <g
           id="g96"
           transform="translate(333.6162,356.1128)">
          <path
             d="M 0,0 C 0,-1.25 -1.014,-2.263 -2.263,-2.263 H -5.61 c -1.249,0 -2.261,1.013 -2.261,2.263 0,1.25 1.012,2.262 2.261,2.262 h 3.347 C -1.014,2.262 0,1.25 0,0"
             style="fill:#ffffff;fill-opacity:1;fill-rule:nonzero;stroke:none"
             id="path98" />
        </g>
        <g
           id="g100"
           transform="translate(344.3506,342.9468)">
          <path
             d="m 0,0 c 0,-0.77 -0.961,-1.395 -2.146,-1.395 h -9.356 c -1.186,0 -2.145,0.625 -2.145,1.395 v 6.49 c 0,0.771 0.959,1.394 2.145,1.394 h 9.356 C -0.961,7.884 0,7.261 0,6.49 Z"
             style="fill:#ffffff;fill-opacity:1;fill-rule:nonzero;stroke:none"
             id="path102" />
        </g>
        <g
           id="g104"
           transform="translate(333.6162,346.1919)">
          <path
             d="M 0,0 C 0,-1.249 -1.014,-2.262 -2.263,-2.262 H -5.61 c -1.249,0 -2.261,1.013 -2.261,2.262 0,1.25 1.012,2.262 2.261,2.262 h 3.347 C -1.014,2.262 0,1.25 0,0"
             style="fill:#ffffff;fill-opacity:1;fill-rule:nonzero;stroke:none"
             id="path106" />
        </g>
        <g
           id="g108"
           transform="translate(344.3506,333.0269)">
          <path
             d="m 0,0 c 0,-0.771 -0.961,-1.395 -2.146,-1.395 h -9.356 c -1.186,0 -2.145,0.624 -2.145,1.395 v 6.489 c 0,0.771 0.959,1.395 2.145,1.395 h 9.356 C -0.961,7.884 0,7.26 0,6.489 Z"
             style="fill:#ffffff;fill-opacity:1;fill-rule:nonzero;stroke:none"
             id="path110" />
        </g>
        <g
           id="g112"
           transform="translate(333.6162,336.271)">
          <path
             d="M 0,0 C 0,-1.249 -1.014,-2.261 -2.263,-2.261 H -5.61 c -1.249,0 -2.261,1.012 -2.261,2.261 0,1.25 1.012,2.263 2.261,2.263 h 3.347 C -1.014,2.263 0,1.25 0,0"
             style="fill:#ffffff;fill-opacity:1;fill-rule:nonzero;stroke:none"
             id="path114" />
        </g>
        <g
           id="g116"
           transform="translate(380.2773,432.8472)">
          <path
             d="m 0,0 c 0,-1.682 -1.364,-3.046 -3.046,-3.046 -1.683,0 -3.046,1.364 -3.046,3.046 0,1.683 1.363,3.046 3.046,3.046 C -1.364,3.046 0,1.683 0,0"
             style="fill:#36a9ce;fill-opacity:1;fill-rule:nonzero;stroke:none"
             id="path118" />
        </g>
        <g
           id="g120"
           transform="translate(389.0234,432.8472)">
          <path
             d="m 0,0 c 0,-1.682 -1.362,-3.046 -3.045,-3.046 -1.683,0 -3.046,1.364 -3.046,3.046 0,1.683 1.363,3.046 3.046,3.046 C -1.362,3.046 0,1.683 0,0"
             style="fill:#36a9ce;fill-opacity:1;fill-rule:nonzero;stroke:none"
             id="path122" />
        </g>
        <g
           id="g124"
           transform="translate(397.6377,432.8472)">
          <path
             d="m 0,0 c 0,-1.682 -1.364,-3.046 -3.047,-3.046 -1.682,0 -3.045,1.364 -3.045,3.046 0,1.683 1.363,3.046 3.045,3.046 C -1.364,3.046 0,1.683 0,0"
             style="fill:#36a9ce;fill-opacity:1;fill-rule:nonzero;stroke:none"
             id="path126" />
        </g>
        <g
           id="g128"
           transform="translate(380.2773,384.0342)">
          <path
             d="m 0,0 c 0,-1.682 -1.364,-3.045 -3.046,-3.045 -1.683,0 -3.046,1.363 -3.046,3.045 0,1.683 1.363,3.046 3.046,3.046 C -1.364,3.046 0,1.683 0,0"
             style="fill:#36a9ce;fill-opacity:1;fill-rule:nonzero;stroke:none"
             id="path130" />
        </g>
        <g
           id="g132"
           transform="translate(389.0234,384.0342)">
          <path
             d="m 0,0 c 0,-1.682 -1.362,-3.045 -3.045,-3.045 -1.683,0 -3.046,1.363 -3.046,3.045 0,1.683 1.363,3.046 3.046,3.046 C -1.362,3.046 0,1.683 0,0"
             style="fill:#36a9ce;fill-opacity:1;fill-rule:nonzero;stroke:none"
             id="path134" />
        </g>
        <g
           id="g136"
           transform="translate(397.6377,384.0342)">
          <path
             d="m 0,0 c 0,-1.682 -1.364,-3.045 -3.047,-3.045 -1.682,0 -3.045,1.363 -3.045,3.045 0,1.683 1.363,3.046 3.045,3.046 C -1.364,3.046 0,1.683 0,0"
             style="fill:#36a9ce;fill-opacity:1;fill-rule:nonzero;stroke:none"
             id="path138" />
        </g>
        <g
           id="g140"
           transform="translate(380.2773,334.0093)">
          <path
             d="m 0,0 c 0,-1.682 -1.364,-3.046 -3.046,-3.046 -1.683,0 -3.046,1.364 -3.046,3.046 0,1.682 1.363,3.046 3.046,3.046 C -1.364,3.046 0,1.682 0,0"
             style="fill:#36a9ce;fill-opacity:1;fill-rule:nonzero;stroke:none"
             id="path142" />
        </g>
        <g
           id="g144"
           transform="translate(389.0234,334.0093)">
          <path
             d="m 0,0 c 0,-1.682 -1.362,-3.046 -3.045,-3.046 -1.683,0 -3.046,1.364 -3.046,3.046 0,1.682 1.363,3.046 3.046,3.046 C -1.362,3.046 0,1.682 0,0"
             style="fill:#36a9ce;fill-opacity:1;fill-rule:nonzero;stroke:none"
             id="path146" />
        </g>
        <g
           id="g148"
           transform="translate(397.6377,334.0093)">
          <path
             d="m 0,0 c 0,-1.682 -1.364,-3.046 -3.047,-3.046 -1.682,0 -3.045,1.364 -3.045,3.046 0,1.682 1.363,3.046 3.045,3.046 C -1.364,3.046 0,1.682 0,0"
             style="fill:#36a9ce;fill-opacity:1;fill-rule:nonzero;stroke:none"
             id="path150" />
        </g>
        <g
           id="g152">
          <g
             id="g154" />
          <g
             id="g168">
            <g
               clip-path="url(#clipPath158)"
               opacity="0.300003"
               id="g166">
              <path
                 d="M 158.579,393.279 H 37.458 v 11.317 h 121.121 z"
                 style="fill:#add8f6;fill-opacity:1;fill-rule:nonzero;stroke:none"
                 id="path160" />
              <g
                 transform="translate(136.9766,453.9126)"
                 id="g164">
                <path
                   d="M 0,0 V 4.836 H 1.73 V 9.663 H -11.818 V 4.836 h 1.728 V 0 h -6.868 v 4.836 h 1.729 V 9.663 H -28.776 V 4.836 h 1.727 V 0 h -6.867 v 4.836 h 1.73 v 4.827 h -13.546 -0.003 V 4.836 h 0.003 1.726 V 0 h -6.869 v 4.836 h 1.731 V 9.663 H -62.691 V 4.836 h 1.727 V 0 h -6.868 v 4.836 h 1.729 V 9.663 H -79.651 V 4.836 h 1.729 V 0 h -6.232 V 15.315 H 6.235 L 6.235,0 Z m 6.235,16.976 h -90.389 v 2.251 H 6.235 Z m 2.531,4.342 h -2.531 -90.389 -2.532 -0.219 V -49.01 h 2.751 v 46.923 h 6.232 V -40.72 c 0,-2.786 2.257,-5.044 5.045,-5.044 2.785,0 5.045,2.258 5.045,5.044 v 38.633 h 6.868 V -40.72 c 0,-2.786 2.26,-5.044 5.044,-5.044 2.789,0 5.045,2.258 5.045,5.044 v 38.633 h 6.869 V -40.72 c 0,-2.786 2.258,-5.044 5.044,-5.044 2.788,0 5.046,2.258 5.046,5.044 v 38.633 h 6.867 V -40.72 c 0,-2.786 2.259,-5.044 5.046,-5.044 2.787,0 5.045,2.258 5.045,5.044 v 38.633 h 6.868 V -40.72 c 0,-2.786 2.257,-5.044 5.046,-5.044 2.785,0 5.044,2.258 5.044,5.044 V -2.087 H 6.235 V -49.01 h 2.753 v 70.328 z"
                   style="fill:#add8f6;fill-opacity:1;fill-rule:nonzero;stroke:none"
                   id="path162" />
              </g>
            </g>
          </g>
        </g>
        <g
           id="g170">
          <g
             id="g172" />
          <g
             id="g182">
            <g
               clip-path="url(#clipPath176)"
               opacity="0.399994"
               id="g180">
              <path
                 d="M 49.025,116.369 H 97.584 V 80.166 H 49.025 Z m 48.559,18.808 H 49.025 v 34.588 h 48.559 z m 0,51.782 H 49.025 v 36.2 h 48.559 z m 0,97.811 V 240.353 H 49.025 V 284.77 H 37.458 V -4.455 H 49.025 V 62.974 H 97.584 V -4.455 h 11.565 V 284.77 Z"
                 style="fill:#add8f6;fill-opacity:1;fill-rule:nonzero;stroke:none"
                 id="path178" />
            </g>
          </g>
        </g>
        <g
           id="g184"
           transform="translate(102.8794,321.9434)">
          <path
             d="m 0,0 c 26.411,-42.421 20.225,-93.168 13.454,-141.004 -6.121,0.547 -12.341,0.587 -18.524,0.122 1.983,39.216 -1.907,76.138 -15.42,112.181 -0.897,2.392 -1.842,4.861 -1.468,7.376 0.364,2.455 1.955,4.728 3.72,6.819 C -13.672,-9.098 -7.706,-4.397 0,0"
             style="fill:#36a9ce;fill-opacity:1;fill-rule:nonzero;stroke:none"
             id="path186" />
        </g>
        <g
           id="g188"
           transform="translate(99.3672,181.1807)">
          <path
             d="m 0,0 c 8.502,15.388 9.528,36.546 8.985,55.838 -0.522,18.551 -5.56,37.702 0.066,55.269 0.392,1.224 -0.632,2.554 -1.833,2.931 -1.203,0.377 -2.489,0.075 -3.703,-0.228 -3.437,-0.861 -6.872,-1.721 -10.309,-2.582 -0.906,-0.228 -1.902,-0.52 -2.389,-1.337 -0.326,-0.552 -0.349,-1.234 -0.359,-1.882 -0.563,-36.134 9.493,-71.946 7.127,-108.288"
             style="fill:#027691;fill-opacity:1;fill-rule:nonzero;stroke:none"
             id="path190" />
        </g>
        <g
           id="g192"
           transform="translate(54.457,151.1094)">
          <path
             d="m 0,0 c 0,0 0,-6.709 6.425,-11.915 5.048,-4.09 11.313,-5.958 10.283,-4.186 C 15.677,-14.327 9.18,0 9.18,0 Z"
             style="fill:#041519;fill-opacity:1;fill-rule:nonzero;stroke:none"
             id="path194" />
        </g>
        <g
           id="g196"
           transform="translate(70.8286,315.3457)">
          <path
             d="m 0,0 c -12.712,-38.504 -12.411,-129.999 -18.053,-164.236 5.88,-1.087 13.844,-5.223 14.029,-4.6 5.825,19.691 17.613,54.809 20.952,75.07 1.54,9.35 7.288,50.818 7.744,55.864 0.944,10.46 1.885,20.919 2.823,31.378 0.03,0.34 0.052,0.713 -0.149,0.988 -0.177,0.246 -0.488,0.35 -0.779,0.44 C 18.048,-2.472 9.241,-0.783 0,0"
             style="fill:#36a9ce;fill-opacity:1;fill-rule:nonzero;stroke:none"
             id="path198" />
        </g>
        <g
           id="g200"
           transform="translate(81.123,283.3403)">
          <path
             d="M 0,0 C -5.611,-36.767 -12.255,-73.342 -19.916,-109.608"
             style="fill:none;stroke:#0886a8;stroke-width:1;stroke-linecap:butt;stroke-linejoin:miter;stroke-miterlimit:10;stroke-dasharray:none;stroke-opacity:1"
             id="path202" />
        </g>
        <g
           id="g204"
           transform="translate(118.1636,355.1582)">
          <path
             d="m 0,0 c -0.958,-37.156 5.78,-46.753 3.612,-83.083 -0.291,-4.877 -14.784,-6.173 -15.037,-5.152 -1.454,5.881 0.007,18.998 -3.055,18.999 -2.829,0.002 -4.78,-18.943 -9.093,-18.637 -11.545,0.823 -34.654,2.081 -41.795,6.099 -0.569,0.321 11.081,61.478 14.043,85.821 0.649,5.334 -3.958,32.834 12.272,33.596 4.749,0.223 9.613,0.761 14.231,-0.472 6.5,-1.734 17.948,-8.916 23.458,-16.746 C 1.043,17.006 0.105,4.057 0,0"
             style="fill:#94dcf8;fill-opacity:1;fill-rule:nonzero;stroke:none"
             id="path206" />
        </g>
        <g
           id="g208"
           transform="translate(157.2695,345.9888)">
          <path
             d="m 0,0 c 2.917,0.352 5.666,1.63 7.635,3.551 0.969,0.945 1.842,2.092 3.217,2.48 0.183,0.051 0.382,0.087 0.565,0.029 C 11.638,5.987 11.779,5.789 11.846,5.59 12.379,4.033 9.553,2.649 10.3,1.161 c 2.707,2.173 6.876,5.113 9.532,4.631 1.654,-0.3 -2.689,-3.359 -6.215,-5.994 2.719,0.592 4.673,3.256 7.479,3.089 0.219,-0.012 0.451,-0.051 0.614,-0.182 1.199,-0.966 -4.037,-3.563 -6.816,-5.205 1.303,0.395 2.373,0.479 3.607,1.018 1.235,0.539 3.367,1.236 3.968,0.017 0.534,-1.082 -4.726,-3.475 -7.662,-4.462 2.078,0.302 2.853,0.264 5.112,0.487 1.308,0.128 1.214,-1.473 0.286,-1.896 C 18.217,-8.24 7.992,-10.514 -2.12,-9.593 -2.204,-6.898 -1.249,-2.156 0,0"
             style="fill:#e34b67;fill-opacity:1;fill-rule:nonzero;stroke:none"
             id="path210" />
        </g>
        <g
           id="g212"
           transform="translate(103.1304,383.4404)">
          <path
             d="m 0,0 c 5.247,0.32 9.447,-1.87 12.729,-6.564 3.283,-4.694 6.68,-11.647 9.508,-16.681 6.47,-11.516 22.249,-11.972 35.064,-9.001 -2.1,-18.666 -2.076,-21.188 -2.441,-21.692 -0.267,-0.368 -17.302,0.418 -27.848,3.126 -9.982,2.563 -12.805,7.396 -16.044,11.643 -10.462,13.711 -11.141,24.657 -13.281,34.139 -0.305,1.355 -0.558,2.866 0.061,4.046 C -1.634,0.196 0.24,0.483 0,0"
             style="fill:#94dcf8;fill-opacity:1;fill-rule:nonzero;stroke:none"
             id="path214" />
        </g>
        <g
           id="g216"
           transform="translate(103.4077,360.7612)">
          <path
             d="m 0,0 c -0.545,-0.931 -2.662,-3.747 -2.671,-4.067 -0.007,-0.267 -0.535,0.118 -0.732,0.304 -9.655,9.102 -17.327,21.022 -18.735,34.15 -0.052,0.497 -0.085,1.039 0.2,1.45 0.363,0.524 1.09,0.63 1.731,0.689 0,0 7.967,1.56 11.441,0.575 C 11.076,27.469 1.419,2.429 0,0"
             style="fill:#36a9ce;fill-opacity:1;fill-rule:nonzero;stroke:none"
             id="path218" />
        </g>
        <g
           id="g220"
           transform="translate(103.6655,371.1938)">
          <path
             d="M 0,0 C -0.087,5.34 -0.172,10.682 -0.259,16.023 4.669,13.448 8.493,8.879 10.119,3.621 8.108,4.46 6.053,5.197 3.965,5.83 4.895,1.231 9.336,0.744 8.891,0.039 8.673,-0.306 7.456,-3.6 2.664,-9.374 1,-11.378 -0.522,-12.519 -3.273,-15.016 -2.366,-14.146 0.086,-5.323 0,0"
             style="fill:#ffffff;fill-opacity:1;fill-rule:nonzero;stroke:none"
             id="path222" />
        </g>
        <g
           id="g224"
           transform="translate(104.2715,402.8813)">
          <path
             d="M 0,0 C 0.173,1.303 0.313,2.629 0.089,3.928 -0.135,5.227 -0.768,6.51 -1.869,7.275 -2.971,8.04 -4.583,8.163 -5.642,7.353 -6.151,6.963 -6.496,6.399 -6.749,5.817 c -1.148,-2.642 -0.464,-5.951 1.647,-7.971 0.913,-0.873 2.298,-1.528 3.446,-0.996 0.631,0.293 1.061,0.899 1.286,1.544 C -0.145,-0.96 -0.038,-0.285 0,0"
             style="fill:#e02229;fill-opacity:1;fill-rule:nonzero;stroke:none"
             id="path226" />
        </g>
        <g
           id="g228"
           transform="translate(102.1177,354.9941)">
          <path
             d="M 0,0 C 4.35,-22.3 5.147,-45.26 2.352,-67.779"
             style="fill:none;stroke:#041519;stroke-width:1;stroke-linecap:butt;stroke-linejoin:miter;stroke-miterlimit:10;stroke-dasharray:none;stroke-opacity:1"
             id="path230" />
        </g>
        <g
           id="g232"
           transform="translate(96.0967,318.4268)">
          <path
             d="m 0,0 c -0.67,-5.591 -1.402,-11.368 -4.309,-16.208 -2.907,-4.84 -8.614,-8.512 -14.197,-7.308 -5.724,1.234 -9.395,7.182 -9.852,12.939 -0.456,5.759 1.575,11.386 3.575,16.806 C -16.873,2.975 -8.518,0.778 0,0"
             style="fill:#ffffff;fill-opacity:1;fill-rule:nonzero;stroke:none"
             id="path234" />
        </g>
        <g
           id="g236"
           transform="translate(214.127,382.0391)">
          <path
             d="m 0,0 -49.786,-1.126 -3.631,-9.503 33.206,-20.563 z"
             style="fill:#94dcf8;fill-opacity:1;fill-rule:nonzero;stroke:none"
             id="path238" />
        </g>
        <g
           id="g240"
           transform="translate(132.8428,381.9644)">
          <path
             d="M 0,0 19.049,-5.744 21.026,-1.458 1.465,4.691 Z"
             style="fill:#041519;fill-opacity:1;fill-rule:nonzero;stroke:none"
             id="path242" />
        </g>
        <g
           id="g244"
           transform="translate(149.8784,376.3193)">
          <path
             d="M 0,0 1.24,5.845 14.463,4.593 10.832,-4.909 Z"
             style="fill:#041519;fill-opacity:1;fill-rule:nonzero;stroke:none"
             id="path246" />
        </g>
        <g
           id="g248"
           transform="translate(130.3555,366.627)">
          <path
             d="m 0,0 c 1.905,3.098 3.143,7.212 2.961,10.822 -0.115,2.311 -0.168,9.657 2.45,10.531 1.936,0.646 0.741,-5.168 1.29,-4.436 0.7,0.937 1.522,1.766 2.495,2.436 2.704,1.859 7.422,3.368 9.308,0.735 0.952,-1.325 -3.893,-0.913 -4.69,-2.633 2.734,0.177 5.437,1.766 6.8,-0.539 1.292,-2.18 -3.783,-0.504 -5.222,-2.118 3.596,-0.509 7.541,0.111 7.264,-1.85 -0.179,-1.277 -2.121,-0.802 -3.398,-0.67 -1.277,0.134 -3.058,-0.02 -4.028,-0.881 2.243,0.134 4.845,0.379 6.793,-0.714 0.231,-0.13 0.474,-0.289 0.551,-0.543 C 22.691,9.751 22.335,9.347 21.941,9.243 21.547,9.139 21.134,9.242 20.736,9.313 15.376,10.29 13.605,7.196 12.895,4.608 11.678,0.17 10.136,-2.75 6.601,-4.097 6.12,-4.28 5.604,-4.425 5.102,-4.338 4.458,-4.225 3.95,-3.751 3.481,-3.3 2.211,-2.075 0.94,-0.848 -0.331,0.378 -0.081,0.272 0.171,0.165 0,0"
             style="fill:#e34b67;fill-opacity:1;fill-rule:nonzero;stroke:none"
             id="path250" />
        </g>
        <g
           id="g252"
           transform="translate(63.877,375.6265)">
          <path
             d="M 0,0 C -0.015,11.944 8.844,20.629 15.857,18.029 26.818,13.962 35.427,-8.387 44.285,-9.037 51.071,-9.535 58.761,-7.084 65.672,-1.442 72.246,-7.468 78.603,-12.8 78.26,-13.949 75.433,-23.425 65.05,-33.034 52.81,-36.756 28.269,-44.22 0.027,-22.57 0,0"
             style="fill:#ffffff;fill-opacity:1;fill-rule:nonzero;stroke:none"
             id="path254" />
        </g>
        <g
           id="g256"
           transform="translate(105.2241,365.5015)">
          <path
             d="M 0,0 C 1.787,-2.99 1.799,-6.68 1.76,-10.173"
             style="fill:none;stroke:#041519;stroke-width:1;stroke-linecap:butt;stroke-linejoin:miter;stroke-miterlimit:10;stroke-dasharray:none;stroke-opacity:1"
             id="path258" />
        </g>
        <g
           id="g260"
           transform="translate(103.5747,365.7295)">
          <path
             d="M 0,0 C -2.761,-2.15 -4.346,-5.708 -4.077,-9.158"
             style="fill:none;stroke:#041519;stroke-width:1;stroke-linecap:butt;stroke-linejoin:miter;stroke-miterlimit:10;stroke-dasharray:none;stroke-opacity:1"
             id="path262" />
        </g>
        <g
           id="g264"
           transform="translate(101.4624,366.5771)">
          <path
             d="m 0,0 c -1.474,0.118 -2.936,-0.534 -4.086,-1.473 -1.149,-0.939 -2.037,-2.15 -2.911,-3.346"
             style="fill:none;stroke:#041519;stroke-width:1;stroke-linecap:butt;stroke-linejoin:miter;stroke-miterlimit:10;stroke-dasharray:none;stroke-opacity:1"
             id="path266" />
        </g>
        <g
           id="g268"
           transform="translate(91.3237,395.2778)">
          <path
             d="m 0,0 c -4.776,-5.376 4.51,-17.921 9.532,-14.304 3.318,4.669 6.635,9.339 9.951,14.009 0.358,0.503 0.728,1.041 0.763,1.654 0.032,0.593 -0.256,1.155 -0.542,1.681 -1.77,3.234 -3.823,6.32 -6.128,9.217 -0.253,0.316 -1.755,1.504 -2.151,1.612 C 11.029,13.975 6.479,7.296 0,0"
             style="fill:#e34b67;fill-opacity:1;fill-rule:nonzero;stroke:none"
             id="path270" />
        </g>
        <g
           id="g272"
           transform="translate(106.4736,388.7646)">
          <path
             d="m 0,0 c -0.786,-1.13 -2.733,-3.791 -3.52,-4.921 -0.27,-0.388 -2.741,2.442 -3.265,7.327 -0.47,4.385 0.042,5.915 3.016,11.588 C -3.439,10.92 -3.684,7.437 -2.34,4.699 -1.557,3.105 -0.776,1.511 0,0"
             style="fill:#041519;fill-opacity:1;fill-rule:nonzero;stroke:none"
             id="path274" />
        </g>
        <g
           id="g276"
           transform="translate(120.875,395.8848)">
          <path
             d="m 0,0 c -2.689,-6.435 -7.667,-11.096 -10.557,-10.573 -3.433,0.62 -7.062,3.851 -8.443,8.071 -2.726,8.322 -0.41,12.042 3.168,16.867 2.428,3.275 6.026,3.66 10.929,2.383 C -2.302,16.07 4.818,11.532 0,0"
             style="fill:#e34b67;fill-opacity:1;fill-rule:nonzero;stroke:none"
             id="path278" />
        </g>
        <g
           id="g280"
           transform="translate(115.7769,399.0215)">
          <path
             d="m 0,0 c -0.624,-1.493 -0.32,-3.548 -0.356,-5.575 -0.01,-0.504 -2.007,-0.32 -2.769,0.203"
             style="fill:none;stroke:#041519;stroke-width:0.5;stroke-linecap:butt;stroke-linejoin:miter;stroke-miterlimit:10;stroke-dasharray:none;stroke-opacity:1"
             id="path282" />
        </g>
        <g
           id="g284"
           transform="translate(114.4922,390.8691)">
          <path
             d="M 0,0 C -1.631,-0.072 -3.265,0.896 -3.961,2.342"
             style="fill:none;stroke:#041519;stroke-width:0.3;stroke-linecap:round;stroke-linejoin:miter;stroke-miterlimit:10;stroke-dasharray:none;stroke-opacity:1"
             id="path286" />
        </g>
        <g
           id="g288"
           transform="translate(118.8911,397.3096)">
          <path
             d="M 0,0 C 0.172,0.391 -0.015,0.846 -0.417,1.017 -0.82,1.188 -1.285,1.008 -1.457,0.615 -1.629,0.224 -1.443,-0.232 -1.04,-0.402 -0.637,-0.572 -0.172,-0.392 0,0"
             style="fill:#041519;fill-opacity:1;fill-rule:nonzero;stroke:none"
             id="path290" />
        </g>
        <g
           id="g292"
           transform="translate(112.8003,399.8843)">
          <path
             d="M 0,0 C 0.171,0.392 -0.015,0.847 -0.417,1.019 -0.82,1.188 -1.286,1.008 -1.457,0.616 -1.628,0.225 -1.442,-0.231 -1.04,-0.402 -0.637,-0.571 -0.171,-0.391 0,0"
             style="fill:#041519;fill-opacity:1;fill-rule:nonzero;stroke:none"
             id="path294" />
        </g>
        <g
           id="g296"
           transform="translate(120.0801,398.8286)">
          <path
             d="M 0,0 C -0.657,0.648 -1.632,0.966 -2.549,0.83"
             style="fill:none;stroke:#041519;stroke-width:0.3;stroke-linecap:butt;stroke-linejoin:miter;stroke-miterlimit:10;stroke-dasharray:none;stroke-opacity:1"
             id="path298" />
        </g>
        <g
           id="g300"
           transform="translate(113.73,400.958)">
          <path
             d="M 0,0 C -0.656,0.648 -1.632,0.966 -2.549,0.83"
             style="fill:none;stroke:#041519;stroke-width:0.3;stroke-linecap:butt;stroke-linejoin:miter;stroke-miterlimit:10;stroke-dasharray:none;stroke-opacity:1"
             id="path302" />
        </g>
        <g
           id="g304"
           transform="translate(110.3936,423.5942)">
          <path
             d="m 0,0 c 11.844,0.667 21.843,-11.023 16.37,-21.64 -0.236,-0.459 -2.914,-3.581 -4.79,-1.401 -1.502,1.749 1.627,3.689 -0.753,4.035 -3.631,0.528 -4.519,-4.983 -8.699,-0.398 -1.164,1.278 -1.325,2.243 -2.869,2.812 -3.395,1.255 -2.043,-2.079 -3.085,-4.166 -1.115,-2.237 -5.138,4.486 -5.669,2.446 -0.746,-2.876 -2.499,-6.855 -5.377,-5.601 -1.544,0.672 -0.035,4.934 0.198,10.257 C -14.241,-3.793 -4.996,-0.282 0,0"
             style="fill:#041519;fill-opacity:1;fill-rule:nonzero;stroke:none"
             id="path306" />
        </g>
        <g
           id="g308"
           transform="translate(106.2061,419.8989)">
          <path
             d="m 0,0 c -1.611,0.45 -3.268,1.058 -4.387,2.33 -0.41,0.468 -0.749,1.066 -0.692,1.696 0.095,1.075 1.329,1.725 2.365,1.568 1.036,-0.158 1.896,-0.871 2.7,-1.557 -0.709,1.628 -0.742,3.556 -0.092,5.22 0.184,0.47 0.514,0.982 1.005,0.984 C 1.402,10.244 1.729,9.719 1.946,9.252 2.472,8.125 2.937,6.968 3.34,5.788 3.66,6.653 4.012,7.566 4.73,8.128 5.449,8.689 6.652,8.695 7.107,7.902 7.345,7.489 7.327,6.977 7.277,6.5 7.041,4.305 6.214,2.177 4.916,0.413 4.783,0.234 4.64,0.053 4.445,-0.044 4.234,-0.15 3.99,-0.149 3.756,-0.144 2.541,-0.119 1.325,-0.093 0,0"
             style="fill:#041519;fill-opacity:1;fill-rule:nonzero;stroke:none"
             id="path310" />
        </g>
        <g
           id="g312"
           transform="translate(98.8579,401.958)">
          <path
             d="m 0,0 c -0.035,-1.189 -0.171,-2.437 -0.858,-3.426 -0.253,-0.363 -0.608,-0.7 -1.053,-0.768 -0.758,-0.118 -1.418,0.622 -1.486,1.364 -0.068,0.742 0.276,1.457 0.613,2.131 -1.003,-0.768 -2.329,-1.122 -3.589,-0.957 -0.355,0.046 -0.765,0.188 -0.85,0.525 -0.089,0.347 0.218,0.662 0.503,0.892 0.687,0.556 1.407,1.075 2.153,1.554 -0.652,0.074 -1.342,0.161 -1.853,0.561 -0.51,0.399 -0.72,1.229 -0.25,1.679 0.244,0.234 0.601,0.31 0.939,0.357 1.555,0.212 3.166,0.005 4.605,-0.59 C -0.98,3.262 -0.831,3.193 -0.73,3.076 -0.621,2.949 -0.58,2.78 -0.543,2.618 -0.353,1.774 -0.163,0.931 0,0"
             style="fill:#041519;fill-opacity:1;fill-rule:nonzero;stroke:none"
             id="path314" />
        </g>
        <g
           id="g316"
           transform="translate(105.9546,404.2388)">
          <path
             d="M 0,0 C 0.025,2.654 -1.208,4.825 -2.754,4.849 -4.301,4.875 -5.576,2.743 -5.602,0.088 -5.629,-2.564 -4.396,-4.735 -2.848,-4.76 -1.301,-4.785 -0.026,-2.654 0,0"
             style="fill:#e34b67;fill-opacity:1;fill-rule:nonzero;stroke:none"
             id="path318" />
        </g>
        <g
           id="g320"
           transform="translate(334.5635,322.9419)">
          <path
             d="m 0,0 c 4.705,-5.895 8.766,-10.379 8.201,-19.99 1.233,2.565 17.52,9.25 17.406,9.465 C 21.148,-2.142 19.484,3.997 17.076,13.221 17.035,13.379 4.141,3.526 0,0"
             style="fill:#e34b67;fill-opacity:1;fill-rule:nonzero;stroke:none"
             id="path322" />
        </g>
        <g
           id="g324">
          <g
             id="g326" />
          <g
             id="g338">
            <g
               clip-path="url(#clipPath330)"
               id="g336">
              <g
                 transform="translate(341.5596,312.2964)"
                 id="g334">
                <path
                   d="m 0,0 c 1.127,2.92 1.225,6.282 4.201,8.975 4.834,4.371 4.93,8.061 1.07,10.451 C 5.164,19.494 3.506,18.249 -3.328,10.236 -3.836,9.641 -3.666,7.409 -3.754,6.618 -3.84,5.828 -1.152,2.599 0,0"
                   style="fill:#041519;fill-opacity:1;fill-rule:nonzero;stroke:none"
                   id="path332" />
              </g>
            </g>
          </g>
        </g>
        <g
           id="g340"
           transform="translate(327.8604,318.5127)">
          <path
             d="m 0,0 c 2.541,-1.835 6.064,-1.508 9.023,-0.479 5.956,2.07 10.956,6.735 13.434,12.531 1.848,4.326 2.023,10.003 -1.51,13.109 -1.695,1.489 -3.97,2.055 -6.121,2.731 C 10.885,29.132 3.107,27.218 -0.695,14.538 -1.742,11.041 -4.758,3.438 0,0"
             style="fill:#e34b67;fill-opacity:1;fill-rule:nonzero;stroke:none"
             id="path342" />
        </g>
        <g
           id="g344"
           transform="translate(339.0166,301.3652)">
          <path
             d="m 0,0 c 5.82,-24.279 -5.061,-50.534 -5.061,-50.534 0.643,-1.794 28.387,-29.137 39.979,-39.649 4.668,6.936 7.469,24.92 8.102,33.257 0.63,8.337 -0.887,13.883 -1.809,22.193 -0.816,7.363 -1.57,16.017 -4.807,25.288 C 34.461,-3.876 32.492,4.881 19.055,15.948 19.055,15.948 -2.83,11.817 0,0"
             style="fill:#c7f1ff;fill-opacity:1;fill-rule:nonzero;stroke:none"
             id="path346" />
        </g>
        <g
           id="g348"
           transform="translate(339.9189,349.3906)">
          <path
             d="m 0,0 c -4.494,0.605 -9.174,-2.671 -10.141,-7.101 -0.142,-0.644 -0.205,-1.335 0.039,-1.945 0.758,-1.899 3.52,-1.591 5.444,-0.897 1.924,0.693 4.613,1.159 5.541,-0.662 1.031,-2.02 -1.483,-4.656 -0.293,-6.584 0.709,-1.15 2.287,-1.273 3.627,-1.447 1.342,-0.174 2.945,-0.849 2.994,-2.2 0.021,-0.597 -0.293,-1.168 -0.279,-1.766 0.047,-1.961 2.949,-2.16 4.384,-3.497 1.764,-1.642 0.971,-4.745 2.364,-6.713 1.15,-1.627 3.408,-1.972 5.4,-1.922 1.988,0.05 4.092,0.33 5.885,-0.541 2.623,-1.271 3.666,-4.547 6.07,-6.203 3.137,-2.162 7.6,-0.843 10.488,1.64 2.995,2.57 4.991,6.374 5.045,10.319 0.053,3.945 -1.976,7.94 -5.382,9.93 -1.438,0.843 -3.241,1.495 -3.807,3.066 -0.574,1.6 0.461,3.363 0.221,5.045 -0.252,1.786 -1.829,3.042 -3.286,4.103 -2.871,2.09 -6.056,4.265 -9.605,4.107 C 23.045,-3.342 21.43,-3.935 19.764,-3.95 17.195,-3.975 14.828,-2.637 12.672,-1.241 10.516,0.156 8.334,1.688 5.807,2.136 3.275,2.584 0.268,1.567 0,0"
             style="fill:#041519;fill-opacity:1;fill-rule:nonzero;stroke:none"
             id="path350" />
        </g>
        <g
           id="g352"
           transform="translate(332.8369,333.5952)">
          <path
             d="m 0,0 c -0.328,-1.67 -1.799,-3.292 -2.949,-5.087 -0.287,-0.446 1.568,-1.453 2.541,-1.442"
             style="fill:none;stroke:#000000;stroke-width:0.5;stroke-linecap:butt;stroke-linejoin:miter;stroke-miterlimit:10;stroke-dasharray:none;stroke-opacity:1"
             id="path354" />
        </g>
        <g
           id="g356"
           transform="translate(328.6533,326.1294)">
          <path
             d="M 0,0 C 0.777,-1.777 2.971,-2.509 4.643,-1.793"
             style="fill:none;stroke:#041519;stroke-width:0.3;stroke-linecap:round;stroke-linejoin:miter;stroke-miterlimit:10;stroke-dasharray:none;stroke-opacity:1"
             id="path358" />
        </g>
        <g
           id="g360"
           transform="translate(337.6885,330.918)">
          <path
             d="M 0,0 C -0.156,0.203 -0.371,0.355 -0.592,0.492 -1.254,0.904 -1.994,1.195 -2.76,1.349"
             style="fill:none;stroke:#041519;stroke-width:0.3;stroke-linecap:round;stroke-linejoin:miter;stroke-miterlimit:10;stroke-dasharray:none;stroke-opacity:1"
             id="path362" />
        </g>
        <g
           id="g364"
           transform="translate(331.0439,333.0981)">
          <path
             d="M 0,0 C -0.537,0.671 -1.234,1.212 -2.021,1.562"
             style="fill:none;stroke:#041519;stroke-width:0.3;stroke-linecap:round;stroke-linejoin:miter;stroke-miterlimit:10;stroke-dasharray:none;stroke-opacity:1"
             id="path366" />
        </g>
        <g
           id="g368"
           transform="translate(338.7451,332.3921)">
          <path
             d="M 0,0 C -0.021,0.271 -0.146,0.525 -0.299,0.751 -0.85,1.562 -1.82,2.066 -2.799,2.052"
             style="fill:none;stroke:#041519;stroke-width:0.3;stroke-linecap:round;stroke-linejoin:miter;stroke-miterlimit:10;stroke-dasharray:none;stroke-opacity:1"
             id="path370" />
        </g>
        <g
           id="g372"
           transform="translate(332.335,335.5342)">
          <path
             d="M 0,0 C -0.152,0.522 -0.479,0.996 -0.932,1.301 -1.383,1.605 -1.959,1.729 -2.49,1.611 -2.523,1.603 -2.57,1.6 -2.586,1.631"
             style="fill:none;stroke:#041519;stroke-width:0.3;stroke-linecap:round;stroke-linejoin:miter;stroke-miterlimit:10;stroke-dasharray:none;stroke-opacity:1"
             id="path374" />
        </g>
        <g
           id="g376"
           transform="translate(329.2725,334.0249)">
          <path
             d="M 0,0 C 0.082,0.443 0.51,0.733 0.959,0.647 1.412,0.56 1.717,0.131 1.635,-0.312 1.557,-0.757 1.129,-1.046 0.676,-0.959 0.223,-0.874 -0.078,-0.443 0,0"
             style="fill:#041519;fill-opacity:1;fill-rule:nonzero;stroke:none"
             id="path378" />
        </g>
        <g
           id="g380"
           transform="translate(335.4697,331.7012)">
          <path
             d="M 0,0 C 0.082,0.443 0.512,0.732 0.961,0.646 1.414,0.56 1.717,0.131 1.637,-0.313 1.559,-0.758 1.127,-1.046 0.676,-0.96 0.225,-0.873 -0.076,-0.443 0,0"
             style="fill:#041519;fill-opacity:1;fill-rule:nonzero;stroke:none"
             id="path382" />
        </g>
        <g
           id="g384"
           transform="translate(344.9697,330.9424)">
          <path
             d="M 0,0 C 1.637,2.262 4.041,3.328 5.365,2.381 6.691,1.434 6.436,-1.167 4.797,-3.429 3.158,-5.692 0.756,-6.756 -0.568,-5.809 -1.895,-4.862 -1.641,-2.26 0,0"
             style="fill:#e34b67;fill-opacity:1;fill-rule:nonzero;stroke:none"
             id="path386" />
        </g>
        <g
           id="g388"
           transform="translate(365.7705,265.1792)">
          <path
             d="m 0,0 c -0.537,-2.876 -0.473,-5.859 0.189,-8.797 0.133,-0.58 0.329,-1.215 0.93,-1.591 0.512,-0.322 1.194,-0.374 1.824,-0.405 4.327,-0.225 8.647,-0.153 12.891,0.218 0.908,0.079 1.965,0.265 2.238,0.936 0.201,0.484 -0.107,1.03 -0.379,1.524 -1.564,2.806 -2.302,5.847 -2.14,8.802 0.01,0.219 -0.012,0.494 -0.272,0.599 -0.127,0.051 -0.273,0.042 -0.41,0.029 C 10.287,0.933 5.703,0.549 1.119,0.165 0.648,0.126 0.084,0.026 0,0"
             style="fill:#ffffff;fill-opacity:1;fill-rule:nonzero;stroke:none"
             id="path390" />
        </g>
        <g
           id="g392"
           transform="translate(366.9287,263.6162)">
          <path
             d="M 0,0 C 4.266,-2.083 9.422,0.458 13.092,1.592"
             style="fill:none;stroke:#041519;stroke-width:1;stroke-linecap:butt;stroke-linejoin:miter;stroke-miterlimit:10;stroke-dasharray:none;stroke-opacity:1"
             id="path394" />
        </g>
        <g
           id="g396"
           transform="translate(367.2822,259.7236)">
          <path
             d="m 0,0 c -0.16,-3.835 1.539,-3.678 4.637,-3.528 2.67,0.129 5.918,-0.196 8.101,0.521"
             style="fill:none;stroke:#041519;stroke-width:1;stroke-linecap:butt;stroke-linejoin:miter;stroke-miterlimit:10;stroke-dasharray:none;stroke-opacity:1"
             id="path398" />
        </g>
        <g
           id="g400"
           transform="translate(211.521,321.2832)">
          <path
             d="m 0,0 c 1.04,-24.14 0.841,-48.336 -0.599,-72.456 12.816,-0.085 25.449,-3.047 38.249,-3.736 12.797,-0.692 26.504,1.249 36.312,9.558 -13.884,30.597 -3.052,66.83 -9.92,99.755 -0.447,2.154 -1.017,4.38 -2.435,6.055 -1.719,2.027 -4.391,2.914 -6.955,3.568 C 42.419,45.86 29.374,45.663 17.238,42.181 13.176,41.016 9.101,39.418 6.034,36.492 1.68,32.336 -0.03,26.108 -0.799,20.12 -1.812,12.244 -0.192,4.469 0,0"
             style="fill:#f17185;fill-opacity:1;fill-rule:nonzero;stroke:none"
             id="path402" />
        </g>
        <g
           id="g404"
           transform="translate(254.9736,289.9863)">
          <path
             d="M 0,0 C 13.738,19.747 14.057,24.248 20.197,35.752 11.953,29.781 2.996,29.911 -5.09,22.318 -14.872,13.132 -30.354,10.64 -43.64,9.088 c -0.063,-6.744 0.121,-26.68 0.725,-27.67 C -41.74,-20.505 -15.238,-21.907 0,0"
             style="fill:#ce3657;fill-opacity:1;fill-rule:nonzero;stroke:none"
             id="path406" />
        </g>
        <g
           id="g408"
           transform="translate(157.0039,251.6592)">
          <path
             d="m 0,0 c 8.768,9.086 22.926,7.449 35.27,7.465 7.667,0.011 15.306,0.907 22.924,1.802 1.674,0.195 3.348,0.394 5.021,0.588 20.165,2.371 40.329,4.741 60.493,7.109 1.682,-7.78 9.896,-12.162 17.525,-12.86 7.629,-0.691 15.293,1.208 22.944,0.854 1.713,-0.08 3.533,-0.321 4.847,-1.463 1.647,-1.431 2.055,-3.85 2.356,-6.062 2.81,-20.613 5.207,-43.334 -5.783,-60.776 -6.573,-10.424 -17.065,-17.376 -27.483,-23.512 -15.037,-8.854 -30.824,-16.771 -47.727,-20.38 -16.907,-3.606 -35.147,-2.61 -50.427,5.668 -13.804,7.477 -24.182,20.193 -34.195,32.594 -3.449,4.276 -6.962,8.66 -8.829,13.896 -1.859,5.21 -1.962,10.906 -1.9,16.473 C -4.803,-23.751 -6.144,-6.366 0,0"
             style="fill:#f17185;fill-opacity:1;fill-rule:nonzero;stroke:none"
             id="path410" />
        </g>
        <g
           id="g412"
           transform="translate(189.2065,358.9028)">
          <path
             d="m 0,0 c -10.107,-18.334 -11.153,-42.896 -3.96,-53.17 5.369,-7.669 15.851,-10.286 25.17,-10.729 9.319,-0.444 18.615,2.045 27.06,6.045 24.558,11.63 42.239,36.832 44.911,64.015 0.442,4.469 0.473,9.135 -1.275,13.263 -2.293,5.405 -7.289,9.111 -12.317,12.098 C 69.73,37.382 59.013,42.491 47.625,43.728 26.604,46.008 6.315,11.458 0,0"
             style="fill:#f17185;fill-opacity:1;fill-rule:nonzero;stroke:none"
             id="path414" />
        </g>
        <g
           id="g416"
           transform="translate(195.7393,330.9351)">
          <path
             d="m 0,0 c 1.483,-2.428 4.224,-4.087 7.417,-4.493 3.196,-0.405 6.801,0.451 9.759,2.316"
             style="fill:none;stroke:#041519;stroke-width:1;stroke-linecap:round;stroke-linejoin:miter;stroke-miterlimit:10;stroke-dasharray:none;stroke-opacity:1"
             id="path418" />
        </g>
        <g
           id="g420"
           transform="translate(201.9443,366.4722)">
          <path
             d="M 0,0 C -0.057,1.49 1.002,2.74 2.369,2.792 3.733,2.843 4.885,1.678 4.941,0.188 4.999,-1.301 3.938,-2.55 2.574,-2.603 1.209,-2.655 0.057,-1.49 0,0"
             style="fill:#000000;fill-opacity:1;fill-rule:nonzero;stroke:none"
             id="path422" />
        </g>
        <g
           id="g424"
           transform="translate(223.0654,353.7568)">
          <path
             d="M 0,0 C -0.056,1.491 1.186,2.747 2.774,2.807 4.365,2.869 5.698,1.709 5.755,0.221 5.811,-1.27 4.569,-2.527 2.98,-2.586 1.391,-2.647 0.056,-1.49 0,0"
             style="fill:#000000;fill-opacity:1;fill-rule:nonzero;stroke:none"
             id="path426" />
        </g>
        <g
           id="g428"
           transform="translate(214.127,363.0381)">
          <path
             d="m 0,0 c -4.592,-4.966 -9.556,-10.162 -16.13,-11.891 -0.586,-0.155 -1.206,-0.291 -1.68,-0.671 -0.745,-0.596 -0.939,-1.685 -0.693,-2.602 0.246,-0.917 0.854,-1.692 1.494,-2.398 1.554,-1.71 3.392,-3.167 5.418,-4.294"
             style="fill:none;stroke:#041519;stroke-width:1;stroke-linecap:round;stroke-linejoin:miter;stroke-miterlimit:10;stroke-dasharray:none;stroke-opacity:1"
             id="path430" />
        </g>
        <g
           id="g432"
           transform="translate(226.4448,363.1606)">
          <path
             d="m 0,0 c 2.544,-0.729 5.098,-1.542 7.344,-2.93 2.244,-1.389 4.18,-3.423 4.95,-5.93"
             style="fill:none;stroke:#041519;stroke-width:2;stroke-linecap:round;stroke-linejoin:miter;stroke-miterlimit:10;stroke-dasharray:none;stroke-opacity:1"
             id="path434" />
        </g>
        <g
           id="g436"
           transform="translate(202.3638,375.7407)">
          <path
             d="m 0,0 c 1.838,0.688 3.895,0.183 5.762,-0.42 0.884,-0.286 1.772,-0.598 2.546,-1.108 1.136,-0.75 1.951,-1.875 2.742,-2.977"
             style="fill:none;stroke:#041519;stroke-width:2;stroke-linecap:round;stroke-linejoin:miter;stroke-miterlimit:10;stroke-dasharray:none;stroke-opacity:1"
             id="path438" />
        </g>
        <g
           id="g440"
           transform="translate(214.1226,421.6758)">
          <path
             d="m 0,0 c -11.935,-5.435 -22.003,-15.313 -23.095,-28.032 -0.383,-4.442 0.673,-14.311 3.201,-17.707 4.159,-5.583 12.226,-4.625 17.915,-1.03 5.689,3.596 10.299,9.217 16.224,12.282 1.691,0.874 4.162,1.242 4.967,-0.636 0.813,-1.899 -11.719,-16.673 -2.951,-22.232 7.122,-4.514 14.265,-4.509 23.897,4.279 1.336,1.222 2.677,2.962 4.252,2.346 2.461,-0.961 1.461,-5.051 0.642,-7.861 -0.631,-2.171 -0.836,-4.609 -0.008,-6.677 0.829,-2.067 2.909,-3.582 4.866,-3.026 3.361,0.947 5.129,7.036 8.439,5.964 1.901,-0.614 2.518,-3.342 2.322,-5.572 -0.726,-8.274 -7.685,-14.306 -9.464,-22.386 -0.633,-2.888 -0.166,-6.648 2.287,-7.684 1.113,-0.47 2.353,-0.236 3.523,0.014 10.361,2.23 21.061,5.974 28.348,14.63 5.717,6.788 11.763,16.561 13.119,25.769 2.82,19.117 -7.473,44.493 -28.047,43.979 C 59.4,22.08 11.936,5.434 0,0"
             style="fill:#041519;fill-opacity:1;fill-rule:nonzero;stroke:none"
             id="path442" />
        </g>
        <g
           id="g444"
           transform="translate(279.5186,403.2256)">
          <path
             d="m 0,0 c -1.123,7.002 -2.68,13.944 -4.666,20.781 -0.742,2.561 -1.555,5.148 -1.553,7.801 0.002,2.653 0.94,5.439 3.141,7.13 2.199,1.692 5.808,1.89 7.787,-0.019 1.902,-1.828 1.764,-4.708 1.504,-7.235 -0.465,-4.519 -0.93,-9.037 -1.393,-13.555 1.844,2.564 3.737,5.164 6.295,7.128 2.561,1.965 5.936,3.239 9.203,2.697 0.84,-0.141 1.731,-0.451 2.143,-1.143 0.348,-0.583 0.275,-1.297 0.144,-1.953 -0.757,-3.84 -3.166,-7.379 -6.57,-9.665 2.377,2.154 5.481,3.606 8.762,4.104 3.365,0.508 7.09,-0.078 9.584,-2.24 C 36.873,11.67 37.674,7.746 35.58,5.241 33.643,2.92 30.062,2.458 26.918,2.71 23.768,2.961 20.594,3.736 17.49,3.176 14.512,2.637 11.941,0.922 9.066,0.008 5.965,-0.977 2.516,-0.989 0,0"
             style="fill:#041519;fill-opacity:1;fill-rule:nonzero;stroke:none"
             id="path446" />
        </g>
        <g
           id="g448"
           transform="translate(280.7549,342.1304)">
          <path
             d="m 0,0 c 1.082,-14.181 -13.857,-25.853 -14.217,-40.123 -0.053,-2.146 0.264,-4.366 1.422,-6.116 1.158,-1.752 3.305,-2.924 5.379,-2.455 5.103,1.15 6.535,7.12 6.535,7.12 0.951,-2.416 2.807,-10.476 5.401,-10.388 3.171,0.107 4.906,4.144 4.582,7.335 -0.323,3.191 -1.836,6.194 -1.672,9.416 1.209,-2.472 2.476,-5.013 4.552,-6.779 2.081,-1.763 5.204,-2.569 7.649,-1.185 3.035,1.724 3.719,6.077 2.51,9.292 -1.215,3.216 -3.787,5.623 -6.077,8.134 -2.293,2.513 -4.462,5.49 -4.533,8.97 -0.076,3.667 2.17,6.986 4.139,10.135 0.43,0.687 0.861,1.412 0.951,2.211 0.154,1.387 -0.748,2.628 -1.756,3.531 C 10.811,2.719 4.162,2.951 0,0"
             style="fill:#041519;fill-opacity:1;fill-rule:nonzero;stroke:none"
             id="path450" />
        </g>
        <g
           id="g452"
           transform="translate(285.9756,405.2349)">
          <path
             d="m 0,0 c 0.754,-4.47 5.371,-6.968 8.924,-9.785 5.523,-4.385 9.273,-10.944 10.252,-17.931 0.978,-6.985 -0.828,-14.322 -4.942,-20.055 -1.904,-2.656 -4.273,-4.976 -5.963,-7.773 -1.691,-2.798 -2.636,-6.331 -1.365,-9.344"
             style="fill:none;stroke:#5282a2;stroke-width:1;stroke-linecap:round;stroke-linejoin:miter;stroke-miterlimit:10;stroke-dasharray:none;stroke-opacity:1"
             id="path454" />
        </g>
        <g
           id="g456"
           transform="translate(210.8262,392.5811)">
          <path
             d="m 0,0 c -2.833,2.489 -3.743,6.711 -2.857,10.376 0.887,3.667 3.336,6.798 6.246,9.198 3.812,3.143 8.807,5.239 13.677,4.402 3.929,-0.678 7.273,-3.127 10.781,-5.021 3.508,-1.891 7.77,-3.264 11.418,-1.655 3.574,1.575 5.425,5.487 6.787,9.147"
             style="fill:none;stroke:#5282a2;stroke-width:1;stroke-linecap:round;stroke-linejoin:miter;stroke-miterlimit:10;stroke-dasharray:none;stroke-opacity:1"
             id="path458" />
        </g>
        <g
           id="g460"
           transform="translate(274.7705,413.0044)">
          <path
             d="m 0,0 c -5.99,-1.073 -11.35,-5.219 -13.889,-10.749 -1.345,-2.93 -1.924,-6.149 -3.015,-9.181 -1.332,-3.702 -3.444,-7.12 -6.157,-9.97 -1.439,-1.515 -3.531,-2.966 -5.473,-2.19 -1.729,0.691 -2.326,3.257 -1.078,4.641"
             style="fill:none;stroke:#5282a2;stroke-width:1;stroke-linecap:round;stroke-linejoin:miter;stroke-miterlimit:10;stroke-dasharray:none;stroke-opacity:1"
             id="path462" />
        </g>
        <g
           id="g464"
           transform="translate(280.7158,397.1982)">
          <path
             d="m 0,0 c -1.275,-2.396 -2.578,-5.236 -1.451,-7.705 0.812,-1.784 2.664,-2.808 4.072,-4.175 1.899,-1.847 3.033,-4.465 3.07,-7.115 0.026,-1.85 -0.517,-3.789 -1.851,-5.067 -1.336,-1.28 -3.567,-1.702 -5.086,-0.65"
             style="fill:none;stroke:#5282a2;stroke-width:1;stroke-linecap:round;stroke-linejoin:miter;stroke-miterlimit:10;stroke-dasharray:none;stroke-opacity:1"
             id="path466" />
        </g>
        <g
           id="g468"
           transform="translate(254.1865,329.5327)">
          <path
             d="m 0,0 c 2.826,3.702 5.945,7.253 9.789,9.847 3.844,2.594 8.502,4.174 13.096,3.622 4.597,-0.552 9.035,-3.49 10.724,-7.866 1.348,-3.497 0.838,-7.553 -0.879,-10.868 -1.71,-3.317 -4.525,-5.941 -7.656,-7.916 -6.285,-3.957 -14.045,-5.438 -21.334,-4.07 -2.189,0.411 -4.56,1.25 -5.597,3.25 -0.848,1.631 -0.575,3.602 -0.209,5.401 0.728,3.599 1.162,7.417 2.066,8.6"
             style="fill:#f17185;fill-opacity:1;fill-rule:nonzero;stroke:none"
             id="path470" />
        </g>
        <g
           id="g472"
           transform="translate(266.2842,322.6895)">
          <path
             d="M 0,0 C -2.021,1.57 -2.43,4.553 -0.918,6.663 0.598,8.772 3.463,9.209 5.482,7.639 7.502,6.069 7.914,3.087 6.4,0.977 4.885,-1.133 2.02,-1.57 0,0"
             style="fill:#ce3657;fill-opacity:1;fill-rule:nonzero;stroke:none"
             id="path474" />
        </g>
        <g
           id="g476"
           transform="translate(111.146,-1.3184)">
          <path
             d="m 0,0 c 19.54,40.409 38.482,76.31 40.873,124.095 -14.816,0.018 -49.591,2.862 -64.582,5.584 C -27.061,62.687 -47.261,40.32 -64.737,0 Z"
             style="fill:#f17185;fill-opacity:1;fill-rule:nonzero;stroke:none"
             id="path478" />
        </g>
        <g
           id="g480"
           transform="translate(87.853,109.3809)">
          <path
             d="m 0,0 c 9.399,-24.771 24.431,-21.431 32.182,-27.079 16.471,-12.003 4.912,-45.495 6.487,-51.556 8.59,26.149 15.035,23.925 20.833,58.099 C 62.89,-0.573 23.177,-12.815 -0.224,0.769 -0.224,1.563 0.428,2.28 0,0"
             style="fill:#ce3657;fill-opacity:1;fill-rule:nonzero;stroke:none"
             id="path482" />
        </g>
        <g
           id="g484"
           transform="translate(194.8657,262.1201)">
          <path
             d="m 0,0 c -16.1,0.755 -16.185,2.019 -41.085,-3.047 -25.197,-5.127 -25.543,-48.67 -23.939,-83.737 2.458,-53.78 30.691,-49.878 17.778,-176.654 52.425,0.792 176.502,0 214.373,0 -0.687,22.97 0.891,54.028 0.928,77.011 0.02,13.511 0.168,27.055 1.705,40.456 1.838,16.048 5.66,31.797 6.69,47.934 1.724,26.969 -4.875,54.973 -20.227,75.919 C 140.872,-1.169 94.877,8.678 89.911,2.636 80.18,-9.207 65.147,-22.279 42.973,-24.105 15.886,-26.338 7.813,-10.384 0,0"
             style="fill:#94dcf8;fill-opacity:1;fill-rule:nonzero;stroke:none"
             id="path486" />
        </g>
        <g
           id="g488"
           transform="translate(91.1997,190.8711)">
          <path
             d="m 0,0 c -3.319,-31.886 -7.754,-34.801 -15.966,-67.51 -1.807,-7.199 7.88,-15.299 19.174,-22.119 10.282,-6.21 22.238,-8.699 34.017,-10.364 13.088,-1.847 26.288,-2.796 39.478,-2.838 1.32,-0.004 1.126,-5.192 15.343,63.396 5.984,28.872 25.158,86.244 7.302,110.149 C 96.65,74.327 7.721,74.152 0,0"
             style="fill:#94dcf8;fill-opacity:1;fill-rule:nonzero;stroke:none"
             id="path490" />
        </g>
        <g
           id="g492"
           transform="translate(192.0059,195.0449)">
          <path
             d="m 0,0 c -5.933,-25.581 -8.074,-53.486 -4.913,-80.213 3.16,-26.724 11.794,-52.151 25.089,-69.99 2.681,-3.595 5.647,-6.957 9.104,-8.222 3.456,-1.262 7.508,0.023 9.672,4.363 -7.159,4.42 -12.778,13.287 -17.418,22.777 C 3.041,-93.462 -2.576,-43.352 0.958,3.692 0.556,2.222 0.173,0.741 0,0"
             style="fill:#36a9ce;fill-opacity:1;fill-rule:nonzero;stroke:none"
             id="path494" />
        </g>
        <g
           id="g496"
           transform="translate(211.4219,228.7393)">
          <path
             d="m 0,0 c 3.875,-6.669 9.415,-12.209 16.301,-15.425 6.886,-3.217 15.143,-4.023 23.136,-1.684 1.607,0.47 3.253,1.095 4.582,2.269 1.326,1.174 2.269,3.014 1.964,4.61 -3.15,-2.126 -6.82,-2.894 -10.335,-3.164 C 21.653,-14.46 8.834,-8.305 -0.529,1.003 -0.324,0.597 -0.112,0.192 0,0"
             style="fill:#36a9ce;fill-opacity:1;fill-rule:nonzero;stroke:none"
             id="path498" />
        </g>
        <g
           id="g500"
           transform="translate(219.6538,190.9658)">
          <path
             d="m 0,0 c 10.629,-50.784 16.765,-90.438 35.341,-118.924 11.08,-16.987 21.785,-10.422 19.465,-9.85 C 37.156,-124.427 16.802,-70.709 0,0"
             style="fill:#36a9ce;fill-opacity:1;fill-rule:nonzero;stroke:none"
             id="path502" />
        </g>
        <g
           id="g504"
           transform="translate(343.3857,-1.7744)">
          <path
             d="m 0,0 c 24.281,19.604 36.582,76.656 29.396,119.409 -20.328,-3.459 -63.859,-1.173 -84.613,1.227 3.006,-25.939 2.701,-52.184 0.225,-78.251 C -57.133,19.826 -91.525,31.514 -148.433,12.643 -158.307,9.369 -168.729,5.67 -177.099,0 Z"
             style="fill:#f17185;fill-opacity:1;fill-rule:nonzero;stroke:none"
             id="path506" />
        </g>
        <g
           id="g508"
           transform="translate(302.3076,263.2231)">
          <path
             d="m 0,0 c 25.627,-2.391 52.424,-19.015 62.961,-34.823 10.535,-15.806 13.182,-26.913 10.508,-59.802 -3.707,-45.662 20.429,-56.125 1.459,-59.104 -12.926,-2.03 -50.666,-2.356 -63.699,-1.001 -19.159,1.991 -28.633,5.026 -42.543,8.651 -1.327,0.345 -2.735,0.745 -3.549,1.633 -0.713,0.782 -0.828,1.796 -0.914,2.752 -1.397,15.21 -1.969,30.519 0.025,45.688 3.285,25.045 13.479,49.171 23.607,73.066 C -9.277,-16.176 -1.504,0.141 0,0"
             style="fill:#94dcf8;fill-opacity:1;fill-rule:nonzero;stroke:none"
             id="path510" />
        </g>
        <g
           id="g512"
           transform="translate(338.4346,251.4229)">
          <path
             d="m 0,0 c 37.127,-17.109 36.758,-46.916 37.518,-55.56 1.498,-17.077 -0.903,-34.97 0,-52.009 0.494,-9.352 2.257,-15.904 6.486,-23.869 6.428,-12.108 -8.703,-10.202 -16.453,-11.276 -16.498,-2.285 -66.762,0.696 -74.946,2.241 -4.998,0.943 -18.195,2.388 -20.699,6.9"
             style="fill:none;stroke:#041519;stroke-width:2;stroke-linecap:round;stroke-linejoin:miter;stroke-miterlimit:10;stroke-dasharray:none;stroke-opacity:1"
             id="path514" />
        </g>
        <g
           id="g516"
           transform="translate(332.8271,33.29)">
          <path
             d="m 0,0 c -0.975,-3.912 -4.937,-6.292 -8.85,-5.314 l -22.259,5.551 c -3.912,0.974 -6.293,4.937 -5.319,8.848 0.977,3.911 4.94,6.293 8.852,5.316 L -5.316,8.85 C -1.404,7.875 0.977,3.912 0,0"
             style="fill:#ffffff;fill-opacity:1;fill-rule:nonzero;stroke:none"
             id="path518" />
        </g>
        <g
           id="g520"
           transform="translate(307.2256,44.8398)">
          <path
             d="m 0,0 -2.918,-9.516 16.451,-4.498 2.709,10.607 z"
             style="fill:#c7f1ff;fill-opacity:1;fill-rule:nonzero;stroke:none"
             id="path522" />
        </g>
        <g
           id="g524"
           transform="translate(251.1631,171.8486)">
          <path
             d="M 0,0 C 0.043,2.757 1.969,4.959 4.303,4.922 6.643,4.885 8.498,2.621 8.453,-0.132 8.412,-2.886 6.482,-5.089 4.148,-5.054 1.811,-5.016 -0.045,-2.754 0,0"
             style="fill:#000000;fill-opacity:1;fill-rule:nonzero;stroke:none"
             id="path526" />
        </g>
        <g
           id="g528"
           transform="translate(253.0039,173.1348)">
          <path
             d="m 0,0 c -2.289,0.016 -4.576,-0.578 -6.569,-1.703 -0.43,1.528 0.743,3.079 2.11,3.892 C -3.098,3.006 -1.5,3.38 -0.18,4.264 0.219,4.528 0.623,4.935 0.543,5.405 0.418,6.151 -0.648,6.162 -1.383,5.978 -2.707,5.64 -4.035,5.305 -5.363,4.969 c 1.683,0.634 3.32,1.399 4.883,2.286 0.248,0.14 0.515,0.31 0.582,0.586 C 0.225,8.35 -0.396,8.708 -0.916,8.795 -2.896,9.131 -4.871,8.287 -6.71,7.463 -8.196,6.797 -9.733,6.095 -10.805,4.869 -12.13,3.362 -12.559,1.298 -13.28,-0.574 c -0.923,-2.396 -12.98,-15.879 -18.329,-16.958 -4.579,-0.923 -19.365,12.167 -24.772,15.586 -1.787,-2.754 -5.066,-10.307 -7.096,-12.382 5.623,-5.746 12.918,-11.582 18.037,-13.926 6.437,-2.946 10.446,-3.223 15.447,-2.304 3.949,0.727 7.036,3.756 9.621,6.829 4.831,5.746 9.517,13.312 9.696,13.549 1.043,1.391 2.388,2.491 3.554,3.778 1.944,2.152 3.452,2.513 4.913,3.393 C -0.75,-2.131 0.187,-1.692 0,0"
             style="fill:#e34b67;fill-opacity:1;fill-rule:nonzero;stroke:none"
             id="path530" />
        </g>
        <g
           id="g532"
           transform="translate(186.1416,179.9912)">
          <path
             d="m 0,0 c 2.548,0.323 4.865,-1.364 6.876,-2.96 4.527,-3.59 9.054,-7.178 13.579,-10.768 0.263,-0.207 0.544,-0.448 0.59,-0.778 0.034,-0.241 -0.067,-0.479 -0.167,-0.704 -3.633,-8.132 -8.409,-15.753 -14.143,-22.567 -4.654,4.125 -8.807,8.998 -11.119,14.772 -2.311,5.775 -2.602,12.551 0.203,18.103 C -3.134,-2.835 -1.787,-0.225 0,0"
             style="fill:#0886a8;fill-opacity:1;fill-rule:nonzero;stroke:none"
             id="path534" />
        </g>
        <g
           id="g536"
           transform="translate(113.2007,113.1787)">
          <path
             d="m 0,0 c -6.474,-16.646 -13.082,-33.533 -23.883,-47.757 -5.381,-7.086 -11.712,-13.383 -17.827,-19.845 -15.058,-15.907 -30.282,-37.875 -37.632,-58.508 4.238,-1.836 8.85,-3.444 13.09,-5.282 9.366,26.293 37.666,36.17 55.297,53.623 C 8.368,-58.635 20.77,-32.93 32.773,-8.53 21.335,-9.462 9.612,-6.44 0,0"
             style="fill:#0886a8;fill-opacity:1;fill-rule:nonzero;stroke:none"
             id="path538" />
        </g>
        <g
           id="g540"
           transform="translate(117.5693,101.5781)">
          <path
             d="M 0,0 C -0.704,-20.563 -15.877,-37.477 -30.945,-51.49 -46.013,-65.503 -62.673,-79.864 -68.061,-99.723"
             style="fill:none;stroke:#36a9ce;stroke-width:1;stroke-linecap:butt;stroke-linejoin:miter;stroke-miterlimit:10;stroke-dasharray:none;stroke-opacity:1"
             id="path542" />
        </g>
        <g
           id="g544"
           transform="translate(140.7173,110.6396)">
          <path
             d="m 0,0 c -18.051,-24.807 0.7,-71.315 1.695,-87.929 1.393,-23.281 0.138,-40.549 4.62,-68.36 4.088,0.761 8.315,0.765 12.404,0.012 -1.54,9.553 0.534,28.938 0.534,28.938 12.258,71.736 4.177,82.869 4.34,124.364 C 15.743,-2.576 7.917,-1.772 0,0"
             style="fill:#0886a8;fill-opacity:1;fill-rule:nonzero;stroke:none"
             id="path546" />
        </g>
        <g
           id="g548"
           transform="translate(132.8359,77.7744)">
          <path
             d="m 0,0 c -0.655,-3.835 2.918,-29.569 5.083,-40.175 6.358,-31.138 1.88,-55.041 9.438,-80.808 5.685,46.034 5.615,55.369 0.536,110.892 0,0 -0.521,16.346 -4.054,18.617 C 7.471,10.8 0.597,3.493 0,0"
             style="fill:#027691;fill-opacity:1;fill-rule:nonzero;stroke:none"
             id="path550" />
        </g>
        <g
           id="g552"
           transform="translate(142.5181,189.4111)">
          <path
             d="m 0,0 c -8.89,-8.558 -12.252,-21.909 -15.067,-33.933 -3.8,-16.235 -12.269,-30.965 -20.627,-45.42 14.29,-14.001 35.12,-18.339 54.776,-22.085 1.517,-0.29 3.24,-0.536 4.491,0.407 1.25,0.942 1.521,2.684 1.707,4.24 2.456,20.621 3.969,34.477 14.123,52.647 6.096,10.908 5.452,17.123 5.576,22.202 C 45.103,-16.895 41.983,-0.777 32.456,2.9 25.078,5.749 8.767,8.439 0,0"
             style="fill:#027691;fill-opacity:1;fill-rule:nonzero;stroke:none"
             id="path554" />
        </g>
        <g
           id="g556"
           transform="translate(134.8872,110.0859)">
          <path
             d="m 0,0 c 7.845,1.516 15.158,5.45 21.674,10.355 6.517,4.904 12.314,10.779 18.085,16.629"
             style="fill:none;stroke:#00615b;stroke-width:1;stroke-linecap:butt;stroke-linejoin:miter;stroke-miterlimit:10;stroke-dasharray:none;stroke-opacity:1"
             id="path558" />
        </g>
        <g
           id="g560"
           transform="translate(145.0039,101.8086)">
          <path
             d="M 0,0 C 9.527,3.385 17.716,10.897 22.201,20.37"
             style="fill:none;stroke:#00615b;stroke-width:1;stroke-linecap:butt;stroke-linejoin:miter;stroke-miterlimit:10;stroke-dasharray:none;stroke-opacity:1"
             id="path562" />
        </g>
        <g
           id="g564"
           transform="translate(156.2412,97.9893)">
          <path
             d="M 0,0 C 3.523,3.618 6.653,7.657 9.303,12.016"
             style="fill:none;stroke:#00615b;stroke-width:1;stroke-linecap:butt;stroke-linejoin:miter;stroke-miterlimit:10;stroke-dasharray:none;stroke-opacity:1"
             id="path566" />
        </g>
        <g
           id="g568"
           transform="translate(184.6387,160.1846)">
          <path
             d="m 0,0 c -0.074,0.012 -0.144,0.029 -0.21,0.052 l 0.478,1.434 c 0.646,-0.164 4.386,1.316 7.91,5.103 2.89,3.107 7.269,9.683 4.137,18.807 l 1.084,1.23 C 16.912,16.391 12.129,8.414 8.759,5.012 5.735,1.957 1.754,-0.3 0,0"
             style="fill:#041519;fill-opacity:1;fill-rule:nonzero;stroke:none"
             id="path570" />
        </g>
        <g
           id="g572"
           transform="translate(168.2549,190.7715)">
          <path
             d="m 0,0 c -5.787,-4.271 0.697,-18.469 6.36,-15.971 4.213,3.881 8.426,7.762 12.639,11.642 0.454,0.42 0.928,0.87 1.088,1.463 0.156,0.572 -0.01,1.182 -0.182,1.755 -1.061,3.53 -2.429,6.976 -4.083,10.29 -0.182,0.36 -1.406,1.834 -1.771,2.02 C 13.686,11.384 7.85,5.794 0,0"
             style="fill:#e34b67;fill-opacity:1;fill-rule:nonzero;stroke:none"
             id="path574" />
        </g>
        <g
           id="g576"
           transform="translate(181.7256,181.2588)">
          <path
             d="m 0,0 c -1.004,-0.942 -3.459,-3.141 -4.464,-4.085 -0.345,-0.324 -2.174,2.957 -1.675,7.846 0.449,4.385 1.265,5.776 5.351,10.71 C -1.102,11.396 -2.062,8.041 -1.315,5.082 -0.88,3.36 -0.445,1.64 0,0"
             style="fill:#041519;fill-opacity:1;fill-rule:nonzero;stroke:none"
             id="path578" />
        </g>
        <g
           id="g580"
           transform="translate(197.2896,185.2402)">
          <path
             d="m 0,0 c -3.963,-5.738 -9.799,-9.266 -12.52,-8.155 -3.228,1.317 -6.107,5.23 -6.585,9.644 -0.942,8.705 2.093,11.865 6.594,15.845 3.054,2.7 6.655,2.332 11.184,0.067 C 1.079,16.198 7.105,10.282 0,0"
             style="fill:#e34b67;fill-opacity:1;fill-rule:nonzero;stroke:none"
             id="path582" />
        </g>
        <g
           id="g584"
           transform="translate(192.9517,189.3652)">
          <path
             d="m 0,0 c -0.919,-1.331 -1.048,-3.405 -1.503,-5.381 -0.114,-0.491 -2.03,0.103 -2.666,0.774"
             style="fill:none;stroke:#041519;stroke-width:0.5;stroke-linecap:butt;stroke-linejoin:miter;stroke-miterlimit:10;stroke-dasharray:none;stroke-opacity:1"
             id="path586" />
        </g>
        <g
           id="g588"
           transform="translate(190.646,181.5693)">
          <path
             d="M 0,0 C -1.722,-0.654 -3.676,0.355 -4.297,1.97"
             style="fill:none;stroke:#041519;stroke-width:0.3;stroke-linecap:round;stroke-linejoin:miter;stroke-miterlimit:10;stroke-dasharray:none;stroke-opacity:1"
             id="path590" />
        </g>
        <g
           id="g592"
           transform="translate(187.9111,190.8906)">
          <path
             d="M 0,0 C 0.243,0.028 0.49,-0.017 0.728,-0.075 1.449,-0.254 2.137,-0.564 2.75,-0.983"
             style="fill:none;stroke:#041519;stroke-width:0.3;stroke-linecap:round;stroke-linejoin:miter;stroke-miterlimit:10;stroke-dasharray:none;stroke-opacity:1"
             id="path594" />
        </g>
        <g
           id="g596"
           transform="translate(193.8872,188.1582)">
          <path
             d="M 0,0 C 0.801,-0.156 1.564,-0.508 2.205,-1.016"
             style="fill:none;stroke:#041519;stroke-width:0.3;stroke-linecap:round;stroke-linejoin:miter;stroke-miterlimit:10;stroke-dasharray:none;stroke-opacity:1"
             id="path598" />
        </g>
        <g
           id="g600"
           transform="translate(188.2148,192.5879)">
          <path
             d="M 0,0 C 0.199,0.164 0.455,0.248 0.71,0.294 1.626,0.456 2.615,0.129 3.253,-0.545"
             style="fill:none;stroke:#041519;stroke-width:0.3;stroke-linecap:round;stroke-linejoin:miter;stroke-miterlimit:10;stroke-dasharray:none;stroke-opacity:1"
             id="path602" />
        </g>
        <g
           id="g604"
           transform="translate(195.0601,189.9971)">
          <path
             d="m 0,0 c 0.504,0.119 1.049,0.073 1.513,-0.154 0.465,-0.23 0.839,-0.646 0.992,-1.14 0.01,-0.031 0.028,-0.071 0.062,-0.069"
             style="fill:none;stroke:#041519;stroke-width:0.3;stroke-linecap:round;stroke-linejoin:miter;stroke-miterlimit:10;stroke-dasharray:none;stroke-opacity:1"
             id="path606" />
        </g>
        <g
           id="g608"
           transform="translate(195.6084,187.2256)">
          <path
             d="m 0,0 c 0.249,0.348 0.16,0.832 -0.198,1.082 -0.358,0.25 -0.85,0.171 -1.1,-0.176 C -1.547,0.557 -1.459,0.072 -1.101,-0.178 -0.742,-0.428 -0.25,-0.348 0,0"
             style="fill:#041519;fill-opacity:1;fill-rule:nonzero;stroke:none"
             id="path610" />
        </g>
        <g
           id="g612"
           transform="translate(189.9165,189.9014)">
          <path
             d="M 0,0 C 0.25,0.348 0.16,0.831 -0.198,1.083 -0.556,1.332 -1.048,1.252 -1.298,0.905 -1.547,0.558 -1.458,0.073 -1.101,-0.179 -0.742,-0.428 -0.25,-0.347 0,0"
             style="fill:#041519;fill-opacity:1;fill-rule:nonzero;stroke:none"
             id="path614" />
        </g>
        <g
           id="g616"
           transform="translate(193.2925,215.1494)">
          <path
             d="m 0,0 c 11.724,-1.802 19.084,-15.312 11.53,-24.562 -0.326,-0.402 -5.078,-4.045 -5.23,-1.174 -0.121,2.293 1.767,3.667 0.352,4.899 -2.768,2.408 -5.452,-3.939 -8.591,1.413 -0.875,1.491 -0.832,2.468 -2.224,3.346 -3.06,1.931 -2.431,-1.61 -3.882,-3.437 -1.554,-1.956 -4.388,6.754 -5.329,4.869 -1.326,-2.66 -3.279,-3.583 -4.211,-3.88 -1.264,-0.405 -0.475,4.785 0.965,9.914 C -13.559,2.283 -4.945,0.761 0,0"
             style="fill:#041519;fill-opacity:1;fill-rule:nonzero;stroke:none"
             id="path618" />
        </g>
        <g
           id="g620"
           transform="translate(172.6182,223.6641)">
          <path
             d="m 0,0 c -0.745,-1.203 -1.571,-4.165 -1.667,-5.573 -0.143,-2.113 0.636,-4.262 2.063,-5.831 1.425,-1.569 3.469,-2.551 5.583,-2.735 0.799,-0.071 1.641,-0.037 2.358,-0.399 0.804,-0.405 1.329,-1.308 1.283,-2.204 2.546,0.818 5.427,-0.118 7.945,0.778 -0.485,0.512 -0.486,1.335 -0.22,1.985 0.267,0.653 0.753,1.185 1.18,1.744 1.124,1.463 1.9,3.19 2.25,5.001 0.403,2.091 0.1,4.292 -0.856,6.2 C 15.385,8.011 4.857,7.825 0,0"
             style="fill:#041519;fill-opacity:1;fill-rule:nonzero;stroke:none"
             id="path622" />
        </g>
        <g
           id="g624"
           transform="translate(183.7837,197.665)">
          <path
             d="M 0,0 C 0.574,2.591 -0.181,4.971 -1.69,5.314 -3.199,5.66 -4.888,3.84 -5.462,1.248 -6.038,-1.342 -5.281,-3.721 -3.772,-4.065 -2.266,-4.41 -0.575,-2.59 0,0"
             style="fill:#e34b67;fill-opacity:1;fill-rule:nonzero;stroke:none"
             id="path626" />
        </g>
        <g
           id="g628"
           transform="translate(184.6387,160.1846)">
          <path
             d="m 0,0 c -0.006,0 -0.933,0.176 -0.939,0.176 -5.84,1.145 -10.565,4.454 -12.962,9.081 -1.702,3.284 -3.026,8.773 0.334,16.27 1.59,3.547 4.967,8.188 9.508,13.067 0.284,0.305 0.763,0.321 1.068,0.039 0.306,-0.285 0.324,-0.763 0.039,-1.069 C -8.931,31.14 -11.304,26.876 -12.188,24.907 -14.65,19.411 -14.779,14.237 -12.558,9.953 -10.374,5.737 -5.117,2.54 0.268,1.486 0.677,1.406 0.403,-0.07 0,0"
             style="fill:#041519;fill-opacity:1;fill-rule:nonzero;stroke:none"
             id="path630" />
        </g>
        <g
           id="g632"
           transform="translate(184.8247,160.5371)">
          <path
             d="m 0,0 c -0.635,-4.53 -1.262,-9.141 -0.603,-13.624 0.658,-4.482 2.801,-8.897 6.553,-11.089 6.027,-3.522 13.979,-0.228 19.243,4.785 3.918,3.732 7.129,8.677 7.532,14.125 0.116,1.575 -0.207,3.467 -1.597,4.029 -1.56,0.627 -3.224,-0.914 -4.029,-2.495 -2.01,-3.946 -1.484,-9.072 1.264,-12.321 2.747,-3.249 8.193,-7.109 17.376,-4.674 16.803,4.454 23.844,24.712 25.392,31.389"
             style="fill:none;stroke:#041519;stroke-width:1.5;stroke-linecap:butt;stroke-linejoin:miter;stroke-miterlimit:10;stroke-dasharray:none;stroke-opacity:1"
             id="path634" />
        </g>
        <g
           id="g636"
           transform="translate(180.0796,198.0361)">
          <path
             d="M 0,0 C -0.14,0.538 0.183,1.088 0.721,1.226 1.257,1.366 1.806,1.044 1.945,0.508 2.086,-0.03 1.764,-0.579 1.227,-0.719 0.689,-0.86 0.141,-0.536 0,0"
             style="fill:#00615b;fill-opacity:1;fill-rule:nonzero;stroke:none"
             id="path638" />
        </g>
        <g
           id="g640"
           transform="translate(131.5513,160.2529)">
          <path
             d="m 0,0 c -6.446,-17.285 -2.154,-40.353 10.868,-36.371 15.782,4.824 23.568,22.86 29.729,32.266 1.106,1.687 7.493,4.107 7.53,6.347 0.05,3.022 -3.725,4.944 -6.537,7.163 1.184,0.908 3.823,2.249 4.135,3.708 0.587,2.741 -5.526,-0.654 -7.408,-1.861 -4.862,-3.112 -3.69,-7.34 -6.199,-12.573 -3.513,-7.321 -9.998,-13.171 -18.286,-15.213 1.983,4.135 2.361,5.866 4.929,13.491 C 14.045,-1.834 4.359,0.258 0,0"
             style="fill:#e34b67;fill-opacity:1;fill-rule:nonzero;stroke:none"
             id="path642" />
        </g>
        <g
           id="g644"
           transform="translate(147.2407,194.1123)">
          <path
             d="m 0,0 c -12.644,-4.887 -16.64,-21.712 -22.867,-40.451 6.562,-2.429 8.286,-2.23 19.249,-1.81 6.874,0.267 7.788,0.22 16.86,1.199 0.936,5.985 3.219,21.03 2.541,26.524 -0.38,3.077 -0.869,6.19 -2.258,8.961 C 10.007,1.442 4.408,1.704 0,0"
             style="fill:#0886a8;fill-opacity:1;fill-rule:nonzero;stroke:none"
             id="path646" />
        </g>
        <g
           id="g648"
           transform="translate(410.0381,139.3232)">
          <path
             d="m 0,0 c -17.623,-28.051 -21.875,-57.55 -20.879,-88.139 0.58,-17.754 5.455,-54.292 5.455,-54.292 l 19.94,-0.657 c 0,0 2.513,75.224 16.83,112.928 0.949,2.505 1.949,5.084 1.568,7.72 -0.369,2.576 -2.027,4.964 -3.865,7.163 C 14.287,-9.593 8.059,-4.642 0,0"
             style="fill:#36a9ce;fill-opacity:1;fill-rule:nonzero;stroke:none"
             id="path650" />
        </g>
        <g
           id="g652"
           transform="translate(409.583,-3.6006)">
          <path
             d="m 0,0 c -8.84,16.159 -6.301,33.758 -5.646,53.968 0.626,19.437 5.99,39.479 0.169,57.909 -0.404,1.282 0.676,2.673 1.936,3.062 1.262,0.391 2.605,0.07 3.877,-0.254 3.598,-0.917 7.195,-1.833 10.791,-2.749 0.947,-0.244 1.992,-0.554 2.496,-1.413 0.342,-0.579 0.361,-1.294 0.369,-1.972 C 14.426,70.688 6.477,37.386 4.971,-0.164 Z"
             style="fill:#0886a8;fill-opacity:1;fill-rule:nonzero;stroke:none"
             id="path654" />
        </g>
        <g
           id="g656"
           transform="translate(418.4248,135.0088)">
          <path
             d="m 0,0 c -5.982,-25.34 -4.398,-51.937 0.98,-77.412 5.381,-25.472 18.729,-61.518 18.729,-61.518 l 16.145,-0.105 c 0,0 -4.51,84.254 -6.725,132.556 C 19.443,-4.966 9.906,-2.563 0,0"
             style="fill:#36a9ce;fill-opacity:1;fill-rule:nonzero;stroke:none"
             id="path658" />
        </g>
        <g
           id="g660"
           transform="translate(441.5557,75.7012)">
          <path
             d="M 0,0 C 1.389,-27.93 2.469,-44.398 6.053,-72.14"
             style="fill:none;stroke:#0886a8;stroke-width:1;stroke-linecap:butt;stroke-linejoin:miter;stroke-miterlimit:10;stroke-dasharray:none;stroke-opacity:1"
             id="path662" />
        </g>
        <g
           id="g664"
           transform="translate(402.6826,176.4707)">
          <path
             d="m 0,0 c -3.613,-38.775 -11.813,-47.925 -14.063,-85.989 -0.298,-5.111 14.618,-8.254 15.006,-7.226 2.243,5.941 2.35,19.767 5.534,19.389 2.943,-0.35 2.625,-20.302 7.15,-20.517 12.115,-0.576 47.697,1.613 55.627,4.908 0.631,0.264 1.318,0.573 1.594,1.153 0.328,0.683 -0.043,1.463 -0.405,2.133 -3.588,6.733 -6.222,13.848 -8.851,20.942 -7.553,20.4 -15.139,42.558 -7.694,63.052 1.924,5.291 4.817,10.305 6.122,15.747 1.302,5.438 0.722,11.682 -3.51,15.691 -2.924,2.766 -7.121,4.063 -11.211,5.035 -4.846,1.152 -9.906,1.984 -14.863,1.275 C 23.459,34.595 10.656,28.542 3.951,21.082 1.023,17.819 0.396,4.234 0,0"
             style="fill:#94dcf8;fill-opacity:1;fill-rule:nonzero;stroke:none"
             id="path666" />
        </g>
        <g
           id="g668"
           transform="translate(420.4697,174.3027)">
          <path
             d="M 0,0 C -7.291,-22.66 -12.084,-46.441 -11.967,-70.217"
             style="fill:none;stroke:#041519;stroke-width:1;stroke-linecap:butt;stroke-linejoin:miter;stroke-miterlimit:10;stroke-dasharray:none;stroke-opacity:1"
             id="path670" />
        </g>
        <g
           id="g672"
           transform="translate(421.8311,204.0303)">
          <path
             d="m 0,0 c -5.418,0.982 -10.061,-0.773 -14.059,-5.251 -3.998,-4.475 -8.394,-11.289 -11.959,-16.175 -8.16,-11.178 -14.117,-7.013 -27.08,-2.333 -0.129,-19.681 -1.125,-22.56 -0.806,-23.13 0.23,-0.416 8.191,-4.132 19.498,-2.624 10.705,1.429 14.24,6.108 18.136,10.122 12.584,12.968 14.651,24.271 18.051,33.871 0.487,1.372 0.938,2.913 0.44,4.215 C 1.725,0.001 -0.189,0.532 0,0"
             style="fill:#94dcf8;fill-opacity:1;fill-rule:nonzero;stroke:none"
             id="path674" />
        </g>
        <g
           id="g676"
           transform="translate(418.7295,180.4707)">
          <path
             d="m 0,0 c 0.451,-1.037 2.307,-4.229 2.273,-4.563 -0.027,-0.281 0.573,0.057 0.801,0.224 11.174,8.275 20.633,19.722 23.725,33.207 0.117,0.509 0.219,1.069 -0.028,1.532 -0.312,0.591 -1.056,0.791 -1.714,0.933 0,0 -8.096,2.61 -11.834,2.018 C -8.115,29.951 -1.178,2.701 0,0"
             style="fill:#0886a8;fill-opacity:1;fill-rule:nonzero;stroke:none"
             id="path678" />
        </g>
        <g
           id="g680"
           transform="translate(419.7568,191.3555)">
          <path
             d="M 0,0 C 0.75,5.546 1.502,11.092 2.256,16.637 -3.191,14.57 -7.734,10.292 -10.08,5.022 c 2.197,0.624 4.424,1.135 6.678,1.536 -1.541,-4.669 -6.219,-4.624 -5.846,-5.413 0.185,-0.387 1.043,-3.966 5.314,-10.566 1.481,-2.291 2.924,-3.667 5.477,-6.607 C 0.707,-15.01 -0.752,-5.527 0,0"
             style="fill:#ffffff;fill-opacity:1;fill-rule:nonzero;stroke:none"
             id="path682" />
        </g>
        <g
           id="g684"
           transform="translate(421.0479,175.1719)">
          <path
             d="m 0,0 c -0.322,4.406 9.039,11.899 12.66,16.823 3.01,4.095 5.375,8.91 6.117,14.145 0.198,1.383 0.276,2.824 -0.095,4.16 -0.37,1.337 -3.51,3.833 -4.727,3.498 6.334,1.744 11.125,-1.367 15.582,-3.678 -4.082,-5.357 -7.926,-10.114 -11.531,-15.885 0.656,-0.617 1.596,-0.584 2.437,-0.764 0.842,-0.18 1.78,-0.867 1.653,-1.819 C 22.012,15.828 21.457,15.402 20.953,15.055 12.84,9.474 6.521,4.794 0,0"
             style="fill:#ffffff;fill-opacity:1;fill-rule:nonzero;stroke:none"
             id="path686" />
        </g>
        <g
           id="g688"
           transform="translate(436.2646,211.9521)">
          <path
             d="m 0,0 c 4.303,-6.187 -6.914,-18.088 -11.691,-13.701 -2.872,5.267 -5.743,10.54 -8.614,15.809 -0.308,0.568 -0.629,1.174 -0.588,1.816 0.039,0.622 0.409,1.17 0.772,1.68 2.244,3.146 4.762,6.103 7.517,8.831 0.303,0.297 2.016,1.347 2.438,1.408 C -9.738,15.905 -5.834,8.394 0,0"
             style="fill:#e34b67;fill-opacity:1;fill-rule:nonzero;stroke:none"
             id="path690" />
        </g>
        <g
           id="g692"
           transform="translate(419.6982,207.0518)">
          <path
             d="M 0,0 C 0.676,-1.272 2.373,-4.282 3.049,-5.555 3.283,-5.992 6.207,-3.354 7.357,1.664 8.389,6.167 8.047,7.822 5.654,14.092 4.932,10.936 4.756,7.283 3.016,4.599 2.004,3.039 0.992,1.478 0,0"
             style="fill:#041519;fill-opacity:1;fill-rule:nonzero;stroke:none"
             id="path694" />
        </g>
        <g
           id="g696"
           transform="translate(405.5986,216.2471)">
          <path
             d="m 0,0 c 2,-7.028 6.598,-12.494 9.672,-12.31 3.646,0.221 7.82,3.132 9.783,7.35 3.867,8.318 1.922,12.477 -1.203,17.942 -2.119,3.707 -5.816,4.554 -11.074,3.833 C 4.389,16.436 -3.586,12.595 0,0"
             style="fill:#e34b67;fill-opacity:1;fill-rule:nonzero;stroke:none"
             id="path698" />
        </g>
        <g
           id="g700"
           transform="translate(419.9385,243.7744)">
          <path
             d="m 0,0 c -12.238,2.163 -24.09,-8.758 -19.715,-20.481 0.19,-0.508 2.588,-4.088 4.809,-2.052 1.783,1.632 -1.233,4.04 1.285,4.103 3.842,0.1 4.082,-5.744 9,-1.492 1.369,1.183 1.656,2.168 3.334,2.568 3.687,0.884 1.865,-2.416 2.691,-4.717 0.885,-2.463 5.905,4.03 6.201,1.843 0.42,-3.084 1.752,-7.442 4.903,-6.495 1.687,0.509 -1.115,6.534 -1.078,12.114 C 11.51,-2.278 5.164,-0.912 0,0"
             style="fill:#041519;fill-opacity:1;fill-rule:nonzero;stroke:none"
             id="path702" />
        </g>
        <g
           id="g704"
           transform="translate(422.1553,223.0879)">
          <path
             d="M 0,0 C 0.305,2.765 1.855,4.868 3.469,4.702 5.08,4.537 6.145,2.161 5.84,-0.602 5.539,-3.367 3.988,-5.473 2.375,-5.306 0.762,-5.139 -0.301,-2.764 0,0"
             style="fill:#e34b67;fill-opacity:1;fill-rule:nonzero;stroke:none"
             id="path706" />
        </g>
        <g
           id="g708"
           transform="translate(411.292,218.877)">
          <path
             d="M 0,0 C 0.463,-1.628 -0.107,-3.73 -0.322,-5.844 -0.375,-6.37 1.725,-6.424 2.582,-5.976"
             style="fill:none;stroke:#000000;stroke-width:0.5;stroke-linecap:butt;stroke-linejoin:miter;stroke-miterlimit:10;stroke-dasharray:none;stroke-opacity:1"
             id="path710" />
        </g>
        <g
           id="g712"
           transform="translate(411.6162,210.2363)">
          <path
             d="M 0,0 C 1.686,-0.275 3.508,0.527 4.41,1.946"
             style="fill:none;stroke:#000000;stroke-width:0.3;stroke-linecap:round;stroke-linejoin:miter;stroke-miterlimit:10;stroke-dasharray:none;stroke-opacity:1"
             id="path714" />
        </g>
        <g
           id="g716"
           transform="translate(407.8369,217.4834)">
          <path
             d="M 0,0 C -0.129,0.429 0.121,0.878 0.562,1.007 1.002,1.135 1.465,0.89 1.594,0.46 1.725,0.03 1.475,-0.421 1.029,-0.548 0.592,-0.674 0.133,-0.43 0,0"
             style="fill:#000000;fill-opacity:1;fill-rule:nonzero;stroke:none"
             id="path718" />
        </g>
        <g
           id="g720"
           transform="translate(414.4932,219.4072)">
          <path
             d="M 0,0 C -0.129,0.429 0.121,0.88 0.561,1.007 1.002,1.134 1.463,0.89 1.594,0.459 1.723,0.032 1.475,-0.42 1.031,-0.547 0.592,-0.674 0.131,-0.429 0,0"
             style="fill:#000000;fill-opacity:1;fill-rule:nonzero;stroke:none"
             id="path722" />
        </g>
        <g
           id="g724"
           transform="translate(406.79,219.2109)">
          <path
             d="M 0,0 C 0.76,0.593 1.818,0.803 2.756,0.548"
             style="fill:none;stroke:#000000;stroke-width:0.3;stroke-linecap:butt;stroke-linejoin:miter;stroke-miterlimit:10;stroke-dasharray:none;stroke-opacity:1"
             id="path726" />
        </g>
        <g
           id="g728"
           transform="translate(413.6592,220.6396)">
          <path
             d="M 0,0 C 0.764,0.593 1.82,0.802 2.756,0.546"
             style="fill:none;stroke:#000000;stroke-width:0.3;stroke-linecap:butt;stroke-linejoin:miter;stroke-miterlimit:10;stroke-dasharray:none;stroke-opacity:1"
             id="path730" />
        </g>
        <g
           id="g732"
           transform="translate(422.4951,127.5439)">
          <path
             d="m 0,0 c 0.004,-5.9 0.049,-12 2.475,-17.396 2.421,-5.397 7.902,-9.924 13.863,-9.364 6.105,0.574 10.662,6.307 11.851,12.241 C 29.381,-8.587 27.967,-2.48 26.557,3.408 17.92,1.003 8.957,-0.246 0,0"
             style="fill:#ffffff;fill-opacity:1;fill-rule:nonzero;stroke:none"
             id="path734" />
        </g>
        <g
           id="g736"
           transform="translate(423.8506,126.0205)">
          <path
             d="m 0,0 c 3.746,-0.42 8.455,0.426 12.158,0.964 3.735,0.542 7.635,0.681 11.108,2.054"
             style="fill:none;stroke:#041519;stroke-width:1;stroke-linecap:butt;stroke-linejoin:miter;stroke-miterlimit:10;stroke-dasharray:none;stroke-opacity:1"
             id="path738" />
        </g>
        <g
           id="g740"
           transform="translate(344.3428,28.5918)">
          <path
             d="M 0,0 4.65,167.953 44.734,166.889 40.063,-1.892 c -0.223,-8.07 -7.042,-14.437 -15.229,-14.22 l -9.6,0.255 C 6.586,-15.626 -0.236,-8.529 0,0"
             style="fill:#ffffff;fill-opacity:1;fill-rule:nonzero;stroke:none"
             id="path742" />
        </g>
        <g
           id="g744"
           transform="translate(343.2373,192.4854)">
          <path
             d="m 0,0 v 0 c 0.102,3.746 3.268,6.701 7.068,6.599 l 37.6,-0.996 c 3.801,-0.1 6.797,-3.221 6.693,-6.965 -0.103,-3.745 -3.269,-6.701 -7.068,-6.601 l -37.6,0.998 C 2.895,-6.863 -0.104,-3.745 0,0"
             style="fill:#ffffff;fill-opacity:1;fill-rule:nonzero;stroke:none"
             id="path746" />
        </g>
        <g
           id="g748"
           transform="translate(348.5752,181.5391)">
          <path
             d="M 0,0 0.111,4.017 40.199,2.949 40.088,-1.063 Z"
             style="fill:#add8f6;fill-opacity:1;fill-rule:nonzero;stroke:none"
             id="path750" />
        </g>
        <g
           id="g752"
           transform="translate(349.665,34.1602)">
          <path
             d="m 0,0 3.293,118.856 c 0.01,0.357 0.309,0.639 0.672,0.629 l 28.441,-0.755 c 0.362,-0.007 0.647,-0.307 0.637,-0.664 L 29.734,-1.56 C 29.516,-9.445 22.854,-15.666 14.854,-15.456 6.42,-15.232 -0.229,-8.313 0,0"
             style="fill:#ce3657;fill-opacity:1;fill-rule:nonzero;stroke:none"
             id="path754" />
        </g>
        <g
           id="g756"
           transform="translate(357.4756,137.1924)">
          <path
             d="M 0,0 C 0.082,3.067 2.678,5.491 5.793,5.406 8.904,5.323 11.357,2.769 11.273,-0.299 11.189,-3.371 8.598,-5.79 5.482,-5.709 2.369,-5.627 -0.086,-3.069 0,0"
             style="fill:#a52d47;fill-opacity:1;fill-rule:nonzero;stroke:none"
             id="path758" />
        </g>
        <g
           id="g760"
           transform="translate(362.3096,31.8076)">
          <path
             d="M 0,0 C 0.084,3.07 2.678,5.493 5.787,5.408 8.902,5.325 11.357,2.77 11.275,-0.299 11.188,-3.369 8.598,-5.79 5.482,-5.706 2.369,-5.624 -0.086,-3.066 0,0"
             style="fill:#a52d47;fill-opacity:1;fill-rule:nonzero;stroke:none"
             id="path762" />
        </g>
        <g
           id="g764"
           transform="translate(363.8564,87.7148)">
          <path
             d="M 0,0 C 0.084,3.069 2.676,5.493 5.793,5.407 8.904,5.325 11.357,2.769 11.271,-0.297 11.189,-3.37 8.596,-5.788 5.484,-5.706 2.371,-5.624 -0.086,-3.067 0,0"
             style="fill:#a52d47;fill-opacity:1;fill-rule:nonzero;stroke:none"
             id="path766" />
        </g>
        <g
           id="g768"
           transform="translate(369.4482,120.3555)">
          <path
             d="M 0,0 C 0.061,2.238 1.951,4.002 4.221,3.944 6.492,3.883 8.279,2.021 8.219,-0.218 8.16,-2.455 6.266,-4.221 3.996,-4.161 1.727,-4.101 -0.062,-2.238 0,0"
             style="fill:#a52d47;fill-opacity:1;fill-rule:nonzero;stroke:none"
             id="path770" />
        </g>
        <g
           id="g772"
           transform="translate(354.6846,54.8623)">
          <path
             d="M 0,0 C 0.061,2.197 1.914,3.93 4.145,3.869 6.371,3.811 8.131,1.983 8.068,-0.215 8.006,-2.411 6.15,-4.144 3.924,-4.085 1.695,-4.025 -0.061,-2.195 0,0"
             style="fill:#a52d47;fill-opacity:1;fill-rule:nonzero;stroke:none"
             id="path774" />
        </g>
        <g
           id="g776"
           transform="translate(359.1729,107.9697)">
          <path
             d="M 0,0 C 0.039,1.428 1.246,2.552 2.691,2.514 4.137,2.475 5.279,1.288 5.24,-0.138 5.199,-1.564 3.998,-2.69 2.549,-2.651 1.102,-2.613 -0.039,-1.423 0,0"
             style="fill:#a52d47;fill-opacity:1;fill-rule:nonzero;stroke:none"
             id="path778" />
        </g>
        <g
           id="g780"
           transform="translate(413.376,155.3027)">
          <path
             d="m 0,0 c -3.748,0.695 -7.814,2.623 -10.49,5.299 -1.719,1.714 -7.395,6.914 -9.912,5.492 -1.862,-1.05 3.5,-4.206 2.543,-4.119 -1.219,0.114 -2.44,0.057 -3.645,-0.228 -3.346,-0.797 -7.832,-3.404 -7.111,-6.721 0.365,-1.669 3.447,2.385 5.344,1.798 -2.059,-2.002 -5.194,-2.986 -4.36,-5.667 0.789,-2.535 3.053,2.587 5.315,2.574 -2.129,-3.155 -5.381,-5.784 -3.664,-6.948 1.123,-0.757 2.115,1.085 2.908,2.171 0.795,1.087 2.166,2.364 3.513,2.514 -1.677,-1.65 -3.695,-3.501 -4.212,-5.784 -0.065,-0.271 -0.11,-0.571 0.033,-0.81 0.22,-0.363 0.785,-0.371 1.144,-0.138 0.356,0.234 0.565,0.627 0.789,0.988 3.006,4.852 6.655,4.056 9.164,2.79 4.309,-2.172 7.657,-3.022 11.192,-1.219 0.48,0.245 0.955,0.542 1.238,0.995 0.365,0.58 0.356,1.308 0.33,1.991 C 0.061,-3.176 0,-1.326 -0.062,0.522 -0.154,0.253 -0.248,-0.016 0,0"
             style="fill:#e34b67;fill-opacity:1;fill-rule:nonzero;stroke:none"
             id="path782" />
        </g>
        <g
           id="g784"
           transform="translate(450.1631,204.0898)">
          <path
             d="m 0,0 c -6.797,-9.343 -7.91,-35.877 -15.811,-40.795 -6.05,-3.767 -14.378,-5.237 -23.541,-3.37 -3.162,-8.79 -5.486,-15.445 -5.486,-15.445 6.65,-4.608 13.729,-12.127 38.219,-9.872 21.855,2.014 24.945,21.952 26.297,40.872 0.717,10.021 -1.123,19.438 -2.567,24.017 C 15.668,-0.018 9.957,2.875 8.738,3.149 5.197,3.94 2.488,3.422 0,0"
             style="fill:#ffffff;fill-opacity:1;fill-rule:nonzero;stroke:none"
             id="path786" />
        </g>
        <g
           id="g788"
           transform="translate(437.6045,163.7158)">
          <path
             d="M 0,0 C -0.199,-3.642 1.588,-7.072 3.322,-10.295"
             style="fill:none;stroke:#041519;stroke-width:1;stroke-linecap:butt;stroke-linejoin:miter;stroke-miterlimit:10;stroke-dasharray:none;stroke-opacity:1"
             id="path790" />
        </g>
        <g
           id="g792"
           transform="translate(439.0264,164.7305)">
          <path
             d="M 0,0 C 3.607,-0.648 6.811,-3.179 8.24,-6.51"
             style="fill:none;stroke:#041519;stroke-width:1;stroke-linecap:butt;stroke-linejoin:miter;stroke-miterlimit:10;stroke-dasharray:none;stroke-opacity:1"
             id="path794" />
        </g>
        <g
           id="g796"
           transform="translate(440.5713,166.5459)">
          <path
             d="m 0,0 c 1.312,0.829 2.984,0.935 4.51,0.623 1.521,-0.311 2.935,-1 4.33,-1.685"
             style="fill:none;stroke:#041519;stroke-width:1;stroke-linecap:butt;stroke-linejoin:miter;stroke-miterlimit:10;stroke-dasharray:none;stroke-opacity:1"
             id="path798" />
        </g>
        <g
           id="g800"
           transform="translate(287.3779,332.9722)">
          <path
             d="m 0,0 c 0.334,-1.73 0.666,-3.458 0.996,-5.188 0.043,-0.208 0.086,-0.425 0.244,-0.585 0.281,-0.29 0.797,-0.291 1.242,-0.267 5.623,0.327 11.209,1.22 16.61,2.654 0.76,0.203 1.564,0.444 2.06,0.977 0.442,0.476 0.561,1.106 0.596,1.705 C 21.834,0.661 21.58,2.034 21,3.302 20.709,3.942 20.297,4.591 19.586,4.921 18.803,5.284 17.838,5.183 16.949,5.052 11.148,4.203 5.5,2.548 0.299,0.175 0.084,0.077 -0.051,-0.281 0,0"
             style="fill:#027691;fill-opacity:1;fill-rule:nonzero;stroke:none"
             id="path802" />
        </g>
        <g
           id="g804"
           transform="translate(279.7627,329.3633)">
          <path
             d="m 0,0 c 0.125,-0.435 0.248,-0.87 0.369,-1.303 0.018,-0.071 0.041,-0.145 0.104,-0.195 0.086,-0.07 0.228,-0.066 0.351,-0.059 3.444,0.221 6.873,0.628 10.26,1.222 0.131,0.022 0.281,0.058 0.338,0.16 0.041,0.071 0.021,0.155 -0.002,0.233 C 11.107,1.225 10.705,2.375 10.219,3.497 6.887,2.42 3.578,1.282 0.303,0.081 0.211,0.047 0.105,0.001 0.092,-0.083 0.078,-0.167 0.25,-0.224 0,0"
             style="fill:#027691;fill-opacity:1;fill-rule:nonzero;stroke:none"
             id="path806" />
        </g>
        <g
           id="g808"
           transform="translate(296.8662,330.1484)">
          <path
             d="m 0,0 c 2.012,-3.984 4.027,-7.969 6.041,-11.952 2.012,0.593 3.994,1.268 5.934,2.022 C 10.252,-6.119 8.441,-2.339 6.545,1.409 4.467,0.724 2.291,0.25 0,0"
             style="fill:#027691;fill-opacity:1;fill-rule:nonzero;stroke:none"
             id="path810" />
        </g>
        <g
           id="g812"
           transform="translate(301.1221,318.3525)">
          <path
             d="m 0,0 c 3.563,-6.605 7.125,-13.209 10.688,-19.812 0.804,-1.491 1.615,-2.992 2.751,-4.315 6.358,1.251 8.657,3.269 8.657,3.269 0,0 -6.45,11.785 -13.522,24.215 C 8.502,3.489 8.363,3.606 8.193,3.645 8.014,3.685 7.826,3.61 7.658,3.538 5.109,2.424 2.564,1.312 0,0"
             style="fill:#027691;fill-opacity:1;fill-rule:nonzero;stroke:none"
             id="path814" />
        </g>
        <g
           id="g816"
           transform="translate(310.1045,300.2827)">
          <path
             d="m 0,0 c -0.734,1.999 -1.207,4.093 -1.639,6.246 0.285,4.161 -0.806,8.406 -3.066,11.914 -0.606,0.941 -1.328,1.966 -1.143,3.07 0.026,0.156 0.075,0.317 0.192,0.424 0.371,0.337 0.914,-0.144 1.177,-0.572 0.698,-1.142 1.399,-2.282 2.094,-3.423 0.35,1.283 -0.269,2.608 -0.871,3.794 -1.15,2.267 -2.303,4.536 -3.455,6.802 0.625,0.792 1.883,0.195 2.664,-0.44 C -0.545,24.967 3.051,21.758 4.275,17.412 4.793,15.576 4.846,13.646 4.9,11.74 L 5.129,3.29 C 5.133,3.073 5.135,2.84 5.012,2.661 4.906,2.508 4.734,2.423 4.564,2.344 3.068,1.635 1.57,0.926 0,0"
             style="fill:#e34b67;fill-opacity:1;fill-rule:nonzero;stroke:none"
             id="path818" />
        </g>
        <g
           id="g820"
           transform="translate(354.0488,294.7236)">
          <path
             d="m 0,0 c -2.195,6.979 -7.855,11.307 -12.784,16.294 -1.284,-1.215 -2.463,-2.549 -3.602,-3.885 -3.859,-4.516 -7.517,-9.184 -10.97,-13.99 -2.032,17.009 -2.202,14.562 -3.62,21.491 -0.17,0.827 -19.33,-7.614 -19.554,-7.279 4.252,-12.248 2.939,-7.603 6.908,-19.042 1.594,-4.59 2.867,-9.673 6.838,-12.779 3.115,-2.438 7.33,-3.338 11.305,-3.066 3.976,0.271 7.757,1.615 11.32,3.24 5.738,2.622 11.072,6.016 15.789,10.05 0.239,0.205 0.476,0.415 0.713,0.625 C 1.666,-5.534 0.867,-2.758 0,0"
             style="fill:#94dcf8;fill-opacity:1;fill-rule:nonzero;stroke:none"
             id="path822" />
        </g>
        <g
           id="g824"
           transform="translate(307.7002,248.4795)">
          <path
             d="m 0,0 c -1.49,-1.813 -3.336,-3.482 -5.621,-4.089 -2.783,-0.735 -5.723,0.212 -8.602,0.145 -4.746,-0.11 -9.277,-3.267 -10.976,-7.648 0,0 -4.196,-7.912 -2.153,-8.296 0.946,-0.18 4.387,3.847 4.284,4.792 -0.678,-1.54 -0.52,-5.009 1.113,-4.558 1.344,0.37 0.932,2.597 1.394,3.896 -0.834,-1.711 -0.652,-5.565 1.213,-5.129 1.026,0.24 1.912,3.653 1.686,4.663 -0.309,-1.372 -0.279,-3.7 1.119,-3.414 1.338,0.278 1.004,3.184 2.875,4.606 4.943,3.755 12.129,3.518 16.133,8.237 -1.082,1.86 -2.166,3.723 -3.248,5.583 -0.164,0.279 -0.313,0.67 -0.072,0.889 C -0.615,-0.108 -0.285,-0.734 0,0"
             style="fill:#e34b67;fill-opacity:1;fill-rule:nonzero;stroke:none"
             id="path826" />
        </g>
        <g
           id="g828"
           transform="translate(338.1533,305.9521)">
          <path
             d="m 0,0 c -0.734,-8.765 -1.787,-17.446 -1.371,-26.217 0.141,-2.986 0.283,-5.97 -0.635,-8.429 -13.935,-8.583 -27.877,-17.167 -41.814,-25.749 1.658,-3.395 3.316,-6.788 4.974,-10.18 0.309,-0.635 0.701,-1.337 1.391,-1.506 0.428,-0.104 0.871,0.024 1.291,0.15 5.853,1.761 11.705,3.522 17.555,5.285 7.48,2.251 15.035,4.531 21.841,8.34 6.813,3.811 12.914,9.332 15.946,16.462 2.955,6.948 2.773,14.765 2.127,22.262 -0.602,6.982 -1.6,14.045 -4.518,20.421 -1.115,2.429 -2.619,4.855 -5.012,6.09 C 9.385,8.163 0.549,6.523 0,0"
             style="fill:#ffffff;fill-opacity:1;fill-rule:nonzero;stroke:none"
             id="path830" />
        </g>
        <g
           id="g832"
           transform="translate(337.2334,268.3843)">
          <path
             d="M 0,0 C 0.328,-3.208 1.285,-6.348 2.797,-9.203"
             style="fill:none;stroke:#041519;stroke-width:1;stroke-linecap:butt;stroke-linejoin:miter;stroke-miterlimit:10;stroke-dasharray:none;stroke-opacity:1"
             id="path834" />
        </g>
        <g
           id="g836"
           transform="translate(338.7354,270.3398)">
          <path
             d="M 0,0 C 0.871,-2.783 3.4,-4.985 6.303,-5.487"
             style="fill:none;stroke:#041519;stroke-width:1;stroke-linecap:butt;stroke-linejoin:miter;stroke-miterlimit:10;stroke-dasharray:none;stroke-opacity:1"
             id="path838" />
        </g>
        <g
           id="g840"
           transform="translate(338.5635,272.1621)">
          <path
             d="M 0,0 C 1.896,0.214 3.766,0.625 5.576,1.222"
             style="fill:none;stroke:#041519;stroke-width:1;stroke-linecap:butt;stroke-linejoin:miter;stroke-miterlimit:10;stroke-dasharray:none;stroke-opacity:1"
             id="path842" />
        </g>
      </g>
    </g>
  </g>
</svg>
